<?xml version="1.0" encoding="UTF-8"?>
<svg width="900" height="600" fill="#006b3f" stroke="#000000" stroke-width="7" version="1.1" viewBox="-7200 -3600 10800 7200" xmlns="http://www.w3.org/2000/svg" xmlns:cc="http://creativecommons.org/ns#" xmlns:rdf="http://www.w3.org/1999/02/22-rdf-syntax-ns#" xmlns:xlink="http://www.w3.org/1999/xlink">
<g stroke="none">
<path d="m-7200-3600h10800v7200h-10800z"/>
<path d="m-7200-900h10800v900h-10800zm4725-2700h675v7200h-675z" fill="#fcd116"/>
<path d="m-7200 0h10800v900h-10800zm5400-3600h675v7200h-675z" fill="#fff"/>
<path d="m-7200-300h10800v600h-10800zm5175-3300h450v7200h-450z" fill="#000"/>
<circle cx="-1800" r="1800" fill="#d41c30"/>
</g>
<g id="b" transform="translate(-1800)">
<g id="a">
<path id="s" d="m0-1600.6 56.3 173.2h182l-147.3 107 56.3 173.1-147.3-107-147.3 107 56.3-173.1-147.3-107h182z" stroke-width="12"/>
<use transform="rotate(36)" width="100%" height="100%" xlink:href="#s"/>
</g>
<use transform="rotate(72)" width="100%" height="100%" xlink:href="#s"/>
<use transform="rotate(108)" width="100%" height="100%" xlink:href="#a"/>
</g>
<use transform="rotate(180,-1800,0)" width="100%" height="100%" xlink:href="#b"/>
<g transform="rotate(86 -900 -965.13)">
<ellipse cx="492" cy="-213" rx="530" ry="108"/>
<ellipse cx="498" cy="-318" rx="530" ry="114"/>
<ellipse cx="523" cy="-267" rx="586" ry="91"/>
</g>
<path d="m-1361 868c-161 17-865 25-895 3s-75-115-75-120c92-4 52-53 99-79 46-27 112-9 132 23 20 33 4 65 29 66 26 0 526-24 710-11 30 2 53 29 53 59s-23 56-53 59z" fill="#9c4a00"/>
<path id="c" d="m-1841 818c-1 70 101 50 103 108-3 61-172 4-174-109 7-112 172-167 174-103 2 53-101 35-103 104z" fill="#fcd116"/>
<use x="60" width="100%" height="100%" xlink:href="#c"/>
<use x="125" width="100%" height="100%" xlink:href="#c"/>
<use x="186" width="100%" height="100%" xlink:href="#c"/>
<g transform="matrix(.85 0 0 1.8 -1800 0)">
<g transform="rotate(48.1)">
<ellipse cx="317" cy="154" rx="68" ry="58"/>
<ellipse cx="245" cy="229" rx="68" ry="58"/>
<ellipse cx="148" cy="242" rx="68" ry="58"/>
</g>
<ellipse transform="rotate(63.2)" cx="251" cy="100" rx="73" ry="57"/>
<g transform="rotate(57.7)">
<ellipse cx="175" cy="124" rx="69" ry="57"/>
<ellipse cx="109" cy="192" rx="69" ry="57"/>
</g>
</g>
<path d="m-1977-632s-176 152-156 565c22 416 389 611 389 611h58v-1176z" fill="#9461c9"/>
<g transform="matrix(.85 0 0 1.8 -1800 0)">
<g transform="rotate(40.6)">
<ellipse cx="421" cy="95" rx="58" ry="68"/>
<ellipse cx="337" cy="151" rx="58" ry="68"/>
<ellipse cx="255" cy="132" rx="58" ry="68"/>
</g>
<ellipse transform="rotate(24.1)" cx="305" cy="161" rx="58" ry="73"/>
<g transform="rotate(29.9)">
<ellipse cx="450" cy="70" rx="57" ry="69"/>
<ellipse cx="375" cy="79" rx="57" ry="69"/>
<ellipse cx="279" cy="87" rx="57" ry="69"/>
<ellipse cx="192" cy="106" rx="57" ry="69"/>
</g>
</g>
<ellipse transform="rotate(66.5)" cx="-568.75" cy="1501.7" rx="456" ry="148" fill="#d41c30" stroke-width="4"/>
<g transform="matrix(1.25 0 0 .85 -1800 0)">
<ellipse cx="56" cy="-579" rx="49" ry="63"/>
<ellipse cx="50" cy="-658" rx="49" ry="63"/>
<ellipse cx="-18" cy="-563" rx="46" ry="67"/>
<ellipse cx="-4" cy="-649" rx="46" ry="66"/>
<ellipse cx="-80" cy="-647" rx="52" ry="67"/>
<ellipse cx="15" cy="-758" rx="49" ry="63"/>
<ellipse cx="-50" cy="-746" rx="46" ry="66"/>
<ellipse cx="-148" cy="-643" rx="46" ry="67"/>
<ellipse cx="-132" cy="-693" rx="46" ry="66"/>
<ellipse cx="-113" cy="-749" rx="46" ry="66"/>
</g>
<g transform="rotate(66.2 -900 -1380.6)">
<ellipse cx="103" cy="-216" rx="543" ry="188"/>
<ellipse cx="245" cy="-323" rx="114" ry="36"/>
</g>
<path d="m-1422 94c153 187 134 306 118 406l-217-233v-234z"/>
<path d="m-1409 245c154 187 135 306 119 406l-295-457v-307c23 60 23 171 176 358z"/>
<path d="m-1404 367c157 183 140 303 126 404-50-115-78-188-236-372-157-184-83-317-74-386 25 59 27 170 184 354z"/>
<ellipse transform="rotate(65)" cx="-714.71" cy="1336.4" rx="202" ry="66"/>
<ellipse transform="rotate(65.7)" cx="-628.73" cy="1443.5" rx="166" ry="58"/>
<ellipse transform="rotate(66.8)" cx="-564.1" cy="1550.4" rx="166" ry="58"/>
<ellipse transform="rotate(62)" cx="-890.05" cy="1324.3" rx="127" ry="46"/>
<ellipse transform="rotate(65.6)" cx="-787.59" cy="1453.2" rx="127" ry="46"/>
<g transform="translate(-1800)" stroke-linecap="round">
<path d="m439 750a59 59 0 1 0 0 118" fill="none"/>
<path d="m21-146a217.37 46.079 68 1 0 82-43"/>
<ellipse transform="rotate(65.6)" cx="-166" cy="-233" rx="127" ry="46"/>
<ellipse transform="rotate(66.8)" cx="-167" cy="-145" rx="127" ry="46"/>
<path d="m-30-299a158.13 33.666 59.7 1 0 54-41"/>
<path d="m1-349a146.18 33.412 59.8 1 0 65-21"/>
<path d="m117-323a216.57 46.552 59.3 1 0 75-56"/>
<path d="m48-388a161 34 62.4 1 0 53-45"/>
</g>
<g transform="translate(-1800)" fill="#9461c9">
<path id="n" d="m97-553c-29 30 1 84 27 106 31 26 201 207 321 56-96-2-276-228-348-162z"/>
<use x="-21" y="-89" width="100%" height="100%" xlink:href="#n"/>
<use x="-48" y="-174" width="100%" height="100%" xlink:href="#n"/>
<use x="-107" y="-271" width="100%" height="100%" xlink:href="#n"/>
<path d="m-219-917c61-46 173-59 260-15 73 36 194 181 285 216-64 11-103 1-144-18-81 58-110 67-192 79-115 16-210-14-244-73-34-57-19-147 35-189z"/>
</g>
<g transform="matrix(1.4 0 0 .7 -1800 0)">
<ellipse cx="-64" cy="-1181" rx="38" ry="44" fill="#d41c30"/>
<ellipse cx="-66" cy="-1184" rx="13" ry="23" fill="#000" stroke="none"/>
</g>
<g transform="translate(-1800)" fill="#fcd116">
<ellipse transform="rotate(69.6)" cx="-747" cy="-11" rx="45" ry="73"/>
<path d="m-206-786c5 23-12 55-50 66-38 16-67 52-84 111-58-134-21-191 41-205 53-17 85-15 93 28z"/>
</g>
<circle cx="-2062" cy="-756" r="13" fill="#000" stroke="none"/>
</svg>