<?xml version="1.0" encoding="UTF-8"?>
<svg width="900" height="600" version="1.1" viewBox="0 0 450 300" xmlns="http://www.w3.org/2000/svg" xmlns:xlink="http://www.w3.org/1999/xlink">
 <path d="m0 0h450v300h-450z" fill="#ce1126"/>
 <path d="m29.5 42h391v216h-391z" fill="#007a5e"/>
 <path d="m29.5 42h391l-391 216h391z" fill="#fcd116"/>
 <circle cx="225" cy="150" r="36" fill="#ce1126"/>
 <path d="m55.444 150.11c4.262 8.515 12.757 17.893 20.313 21.321 0.367-8.513-2.341-19.515-6.224-28.33z" fill="#ce1126"/>
 <g fill="#fcd116">
  <path d="m47.784 121.49c6.35 13.695-17.533 45.856 21.453 53.976-4.736-6.643-7.33-17.752-6.04-26.456 8.095 3.448 16.212 11.464 19.402 18.972 13.444-37.484-26.456-33.922-34.815-46.492z"/>
  <use transform="translate(-25)" width="100%" height="100%" xlink:href="#a"/>
  <use transform="translate(-25)" x="100" width="100%" height="100%" xlink:href="#a"/>
  <use transform="translate(-25)" x="200" width="100%" height="100%" xlink:href="#a"/>
  <use transform="translate(-25)" x="200" y="-258" width="100%" height="100%" xlink:href="#a"/>
  <use transform="translate(-25)" x="100" y="-258" width="100%" height="100%" xlink:href="#a"/>
  <use transform="translate(-25)" y="-258" width="100%" height="100%" xlink:href="#a"/>
  <path d="m225 117-19.397 59.697 50.782-36.895h-62.769l50.782 36.895z"/>
 </g>
 <defs>
  <path id="a" d="m150 259.5-11.462 35.276 30.007-21.802h-37.091l30.007 21.802z"/>
 </defs>
</svg>
