<?xml version="1.0" encoding="UTF-8" standalone="no"?>
<svg
   xmlns:dc="http://purl.org/dc/elements/1.1/"
   xmlns:cc="http://creativecommons.org/ns#"
   xmlns:rdf="http://www.w3.org/1999/02/22-rdf-syntax-ns#"
   xmlns:svg="http://www.w3.org/2000/svg"
   xmlns="http://www.w3.org/2000/svg"
   xmlns:xlink="http://www.w3.org/1999/xlink"
   xmlns:sodipodi="http://sodipodi.sourceforge.net/DTD/sodipodi-0.dtd"
   xmlns:inkscape="http://www.inkscape.org/namespaces/inkscape"
   width="900"
   height="600"
   viewBox="0 0 270 180"
   version="1.1"
   id="svg64"
   sodipodi:docname="Flag of Nepal (white background, 3-2 ratio).svg"
   inkscape:version="0.92.4 (5da689c313, 2019-01-14)">
  <metadata
     id="metadata70">
    <rdf:RDF>
      <cc:Work
         rdf:about="">
        <dc:format>image/svg+xml</dc:format>
        <dc:type
           rdf:resource="http://purl.org/dc/dcmitype/StillImage" />
        <dc:title></dc:title>
      </cc:Work>
    </rdf:RDF>
  </metadata>
  <defs
     id="defs68" />
  <sodipodi:namedview
     pagecolor="#ffffff"
     bordercolor="#666666"
     borderopacity="1"
     objecttolerance="10"
     gridtolerance="10"
     guidetolerance="10"
     inkscape:pageopacity="0"
     inkscape:pageshadow="2"
     inkscape:window-width="1366"
     inkscape:window-height="705"
     id="namedview66"
     showgrid="false"
     showguides="false"
     inkscape:snap-bbox="true"
     inkscape:bbox-paths="true"
     inkscape:bbox-nodes="true"
     inkscape:snap-bbox-edge-midpoints="true"
     inkscape:snap-bbox-midpoints="true"
     inkscape:zoom="0.22627417"
     inkscape:cx="2651.7956"
     inkscape:cy="468.68806"
     inkscape:window-x="-8"
     inkscape:window-y="-8"
     inkscape:window-maximized="1"
     inkscape:current-layer="svg64" />
  <ellipse
     cx="147"
     cy="90"
     id="circle49"
     fill="#c60c30"
     r="24" />
  <g
     id="g6805"
     transform="matrix(2.0639011,0,0,2.0631181,36.288541,9.6225495)">
    <rect
       id="rect6778"
       height="87.246002"
       width="130.8197"
       y="-4.664"
       x="-17.582001"
       style="fill:#ffffff" />
    <use
       id="use6780"
       xlink:href="#a"
       style="stroke:#003893;stroke-width:5.16499996"
       x="0"
       y="0"
       width="100%"
       height="100%" />
    <path
       d="M -15,37.57 H 45 L -15,0 V 80 H 45 L -15,20 Z"
       id="a"
       inkscape:connector-curvature="0"
       style="fill:#dc143c" />
    <g
       id="g6787"
       style="fill:#ffffff">
      <path
         id="path6783"
         d="m 0,35.43 c 6.6,0 11.95,-5.35 11.95,-11.95 C 10.9,26.15 9,28.36 6.58,29.8 l -1.02,-0.76 2,-1.5 -2.42,-0.62 1.28,-2.17 -2.5,0.36 0.37,-2.48 -2.17,1.3 -0.62,-2.45 -1.5,2 -1.5,-2 -0.63,2.44 -2.16,-1.28 0.37,2.5 -2.5,-0.37 1.3,2.17 -2.44,0.62 2,1.5 -1,0.77 c -2.37,-1.4 -4.3,-3.56 -5.38,-6.32 0,6.6 5.35,11.95 11.95,11.95 z"
         inkscape:connector-curvature="0" />
      <path
         id="path6785"
         d="m -5.76,53.03 -5.36,-0.66 3.25,4.3 -4.97,2.12 4.97,2.1 -3.25,4.3 5.36,-0.66 -0.66,5.37 4.3,-3.25 2.12,4.98 2.1,-4.98 4.32,3.26 -0.66,-5.36 5.36,0.67 -3.25,-4.3 4.97,-2.1 L 7.87,56.7 11.12,52.4 5.76,53.05 6.42,47.69 2.12,50.94 0,45.95 -2.1,50.92 -6.42,47.67 Z"
         inkscape:connector-curvature="0" />
    </g>
  </g>
</svg>
