<?xml version="1.0" encoding="UTF-8"?>
<svg width="900" height="600" fill="#ffffff" version="1.1" viewBox="0 0 216 144" xmlns="http://www.w3.org/2000/svg" xmlns:cc="http://creativecommons.org/ns#" xmlns:rdf="http://www.w3.org/1999/02/22-rdf-syntax-ns#" xmlns:xlink="http://www.w3.org/1999/xlink">
<defs>
<path id="a" d="M 0,-0.951057 0.309017,0 -0.5,-0.587785 h 1 L -0.309017,0 Z"/>
<path id="b" d="m0 0 0.30902 0.95106-0.80902-0.58779h1l-0.80902 0.58779z"/>
</defs>
<path d="m0 0h216v144h-216z" fill="#ce1126" stroke-width=".86602"/>
<path d="m0 0h108v72h-108z" fill="#002b7f" stroke-width=".86602"/>
<use transform="matrix(20,0,0,20,54,69)" width="100%" height="100%" xlink:href="#a"/>
<use transform="matrix(16,0,0,16,32,21)" width="100%" height="100%" xlink:href="#b"/>
<use transform="matrix(16,0,0,16,54,3)" width="100%" height="100%" xlink:href="#b"/>
<use transform="matrix(15,0,0,15,76.5,18)" width="100%" height="100%" xlink:href="#b"/>
<use transform="matrix(10,0,0,10,65,46)" width="100%" height="100%" xlink:href="#a"/>
</svg>