<?xml version="1.0" encoding="UTF-8"?>
<svg width="900" height="600" version="1.1" viewBox="-35 -30 150 100" xmlns="http://www.w3.org/2000/svg" xmlns:xlink="http://www.w3.org/1999/xlink">
<clipPath id="rect">
<rect x="-35" y="-30" width="200" height="100"/>
</clipPath>
<rect x="-35" y="-30" width="150" height="100" fill="#215b33" stroke-width=".86602"/>
<path d="m-35 70v-100h150" fill="#0051ba" stroke-width=".86602"/>
<g transform="translate(-3.166 -1.0202)">
<g id="star" transform="scale(10)" fill="#fff">
<g id="cone">
<polygon id="triangle" transform="rotate(18 3.1569 -.5)" points="0.5 1 0 0 0 1"/>
<use transform="scale(-1,1)" width="100%" height="100%" xlink:href="#triangle"/>
</g>
<use transform="rotate(72)" width="100%" height="100%" xlink:href="#cone"/>
<use transform="rotate(-72)" width="100%" height="100%" xlink:href="#cone"/>
<use transform="rotate(144)" width="100%" height="100%" xlink:href="#cone"/>
<use transform="rotate(216)" width="100%" height="100%" xlink:href="#cone"/>
</g>
<use transform="translate(19.741 -16.92)" width="100%" height="100%" xlink:href="#star"/>
<use transform="translate(19.741 16.92)" width="100%" height="100%" xlink:href="#star"/>
<use transform="translate(-19.741 16.92)" width="100%" height="100%" xlink:href="#star"/>
<use transform="translate(-19.741 -16.92)" width="100%" height="100%" xlink:href="#star"/>
</g>
<path transform="matrix(.75 0 0 1 -8.75 0)" d="m165-30-200 100" clip-path="url(#rect)" stroke="#fcd116" stroke-width="9"/>
</svg>