<?xml version="1.0" encoding="UTF-8"?>
<svg width="900" height="600" version="1.0" xmlns="http://www.w3.org/2000/svg" xmlns:cc="http://creativecommons.org/ns#" xmlns:rdf="http://www.w3.org/1999/02/22-rdf-syntax-ns#" xmlns:xlink="http://www.w3.org/1999/xlink">
<g stroke-width=".86602">
<rect width="900" height="600" fill="#f7b718"/>
<rect x="161.25" y="50" width="123.75" height="500" fill="#df7500"/>
<rect x="37.5" y="50" width="123.75" height="500" fill="#005f56"/>
<rect x="322.5" y="50" width="543.75" height="500" fill="#941e32"/>
</g>
<use transform="matrix(-1 0 0 1 1188.8 -2.3278e-7)" width="1200" height="600" xlink:href="#path2389"/>
<use transform="matrix(1 0 0 -1 0 600)" width="1200" height="600" xlink:href="#path2389"/>
<use transform="rotate(180 594.38 300)" width="1200" height="600" xlink:href="#path2389"/>
<g>
<path id="path2389" d="m374.2 484.55s-5.0986 10.381-10.731 14.61c-8.3457 6.2667-25.459 5.814-32.721 13.125-8.7028 8.6213 0.67534 20.012 0.59693 21l-0.47719 6.0155s5.8684 0.0707 8.339 0.45595c3.7154 0.5793 5.1645 3.6024 12.082 3.1534 17.392-1.1289 16.691-16.798 17.674-30.188 0.87348-5.0987 2.8946-11.747 4.0431-16.844 0.9848-4.3707 1.195-11.329 1.195-11.329z" fill="#f7b718" fill-rule="evenodd" stroke="#000" stroke-width="1.5943"/>
<path d="m511.15 434.67 3.2695-1.8877 1.3987 1.8911c1.8634 2.5196 7.0196 2.4911 10.441-0.058l2.6162-1.9489 2.1906 1.9489c2.8802 2.5626 8.259 2.566 11.693 9e-3 2.4045-1.7912 2.7397-1.8271 4.3296-0.46458 0.94778 0.81234 3.7276 1.7372 6.1774 2.0551 4.4121 0.57275 4.4789 0.5413 7.0604-3.3315 2.162-3.2434 2.5001-4.5561 1.9842-7.7018-0.34195-2.0855-0.71032-5.4421-0.81861-7.4591-0.19589-3.652-0.17482-3.6748 5.1449-5.5271 2.9378-1.023 6.3386-2.395 7.5571-3.049 2.1246-1.1402 7.9819-8.0245 7.9819-9.3813 0-0.35954-2.2883-0.91031-5.0851-1.224-11.124-1.2478-13.008-7.2216-5.7766-18.317 11.794-18.096 18.911-35.719 18.959-46.945 0.0214-5.0179 0.30709-6.7028 0.95187-5.6115 2.6351 4.4594-2.0856 23.157-9.2367 36.585l-2.8794 5.4067 2.7476-0.63252c1.5112-0.34787 10.396-4.0964 19.743-8.33 25.586-11.588 34.374-13.859 50.933-13.162 13.873 0.58433 19.78 3.2945 29.575 13.568 5.1889 5.4424 10.187 9.3364 19.331 15.06 19.481 12.194 20.293 13.251 21.22 27.591 0.93865 14.53 0.47151 15.318-10.518 17.746-9.3927 2.0752-15.282 6.454-16.861 12.537-0.84337 3.2488 0.93147 3.3424 5.6671 0.29884l3.4706-2.2305 1.5432 2.2305c2.0288 2.9325 6.3413 2.9442 9.9222 0.0267l2.705-2.2036 2.7652 2.2036c4.2964 3.4238 10.01 2.5935 11.623-1.689 0.31001-0.82311 1.1373-0.55941 2.8125 0.89649 3.1389 2.728 11.185 3.8982 12.054 1.7532 0.33166-0.81843-0.29835-2.8396-1.4-4.4915-4.6814-7.0197-6.1459-10.367-6.2069-14.188-0.0845-5.3147 1.5011-7.8791 7.546-12.201 7.3431-5.2506 9.6123-12.025 4.028-12.025-3.4479 0-6.9238-3.0476-9.1404-8.0143-4.5059-10.096-3.6228-21.414 3.1399-40.243 6.8691-19.125 7.6311-22.651 7.6586-35.442 0.0225-10.342-0.23813-12.13-2.5911-17.8-1.4386-3.4667-4.3576-8.6286-6.4867-11.471l-3.8711-5.1678 4.9701-4.1175c15.176-12.572 12.071-33.149-6.1972-41.077-5.5887-2.4254-6.9851-2.6395-16.779-2.5737-5.8757 0.0395-14.835 0.81272-19.909 1.7183-5.1739 0.9233-13.932 1.6654-19.939 1.6895-9.5435 0.0384-11.164-0.19687-14.841-2.1545-3.8349-2.0413-4.4924-3.0104-5.2433-7.7284-0.15431-0.96983-0.83239-1.9373-1.5067-2.15-1.3044-0.4113-7.3283 4.8167-8.2183 7.1325-0.43907 1.1426-0.79745 1.0636-2.0856-0.4599-0.85552-1.0117-2.05-3.3365-2.6545-5.1662-1.52-4.6015 0.34653-8.0509 5.7554-10.636l4.1964-2.0056-2.4745-1.5356c-5.1062-3.1686-13.789-1.001-16.929 4.2263-0.88825 1.4786-1.8571 2.6911-2.1529 2.6943-0.29583 2e-3 -1.9841-1.4074-3.7519-3.1346-6.5928-6.442-4.325-15.973 4.4931-18.882 4.7022-1.5516 8.8634-0.36801 9.7293 2.7675 1.3218 4.787 5.4307-1.5053 4.6938-7.188-0.48997-3.7781-0.41635-3.909 2.1979-3.909 3.6355 0 11.373 4.7714 13.767 8.4889 2.7798 4.318 2.5775 11.118-0.48152 16.185l-2.402 3.9792 3.1421-0.62922c4.6075-0.92267 9.0838-3.784 11.348-7.2541 2.394-3.6685 2.6514-10.812 0.52852-14.667-2.0572-3.7357-1.8213-4.3288 1.22-3.0664 5.1726 2.1471 7.9381 4.5151 10.012 8.5732 1.8681 3.6547 1.9724 4.5629 0.96109 8.3666-0.62399 2.3468-2.0123 5.4345-3.0853 6.8614-1.6706 2.2219-1.7276 2.5944-0.39653 2.5944 2.4789 0 7.6548-2.3461 9.4932-4.303 0.92876-0.98864 2.2828-3.423 3.009-5.4097l1.3205-3.6121 1.5173 2.7534c2.1456 3.8934 6.3169 7.397 11.403 9.5772 5.4698 2.3449 7.7477 2.477 4.8873 0.28343-1.9289-1.4792-5.4832-11.908-4.406-12.929 0.63381-0.60023 8.0604 5.1139 16.54 12.726 8.021 7.2007 13.061 9.5593 20.428 9.5593 9.4108 6e-5 14.89-8.192 10.661-15.938-2.466-4.5162-7.9596-5.1436-11.172-1.2758-1.4772 1.7785-1.8827 3.1933-1.45 5.0588 0.52995 2.2852 0.32317 2.5897-1.7589 2.5897-2.7355 0-8.1277-3.4998-17.704-11.491-14.603-12.186-32.348-22.515-45.16-26.288-8.2226-2.4213-25.787-3.3662-34.146-1.8369-9.0465 1.6553-19.747 6.8324-25.576 12.374-10.329 9.8204-10.493 22.889-0.43606 34.789l2.8808 3.4089-1.9504 3.0295c-2.8373 4.4074-2.5943 10.338 0.60254 14.707 1.408 1.9242 2.8284 3.4978 3.1564 3.4968 0.32796-7.5e-4 0.6876-1.2381 0.79909-2.7491 0.28233-3.8224 1.9229-6.3835 4.7387-7.3974 2.5362-0.9132 4.1757-0.48189 15.788 4.1532 12.216 4.8761 32.307 5.2113 53.671 0.89536 10.473-2.1158 22.823-1.9914 28.256 0.28472 9.9596 4.1723 12.267 15.027 4.9467 23.267-3.1692 3.5669-6.2256 5.0195-16.487 7.8359-7.8088 2.1431-9.6585 2.2854-27.407 2.1082-15.164-0.15138-20.613 0.13981-26.803 1.4322-6.7198 1.403-10.853 1.5445-30.592 1.0471l-22.823-0.57513 2.5309 2.0957c1.392 1.1526 3.3587 2.5708 4.3704 3.1515 1.7214 0.98805 1.664 1.1208-0.89456 2.0695-1.5037 0.55755-4.8411 1.0137-7.4165 1.0137h-4.6824l-0.63011 3.9793c-0.34661 2.1886-0.32029 4.7439 0.0582 5.6783 0.55844 1.3783 0.35031 1.5762-1.1022 1.0483-0.98478-0.35789-3.7275-1.0618-6.0949-1.5643-2.3674-0.50246-5.554-1.5256-7.0815-2.2737-2.5686-1.258-2.854-1.2242-3.8002 0.45012-0.84484 1.4951-8.7764 7.3983-9.9405 7.3983-0.18785 0-0.43034-1.1382-0.53882-2.5294-0.10848-1.3912-1.2527-5.0128-2.5428-8.048-1.2901-3.0352-2.6372-6.3464-2.9935-7.3582-0.53754-1.5262-0.78092-1.6046-1.4292-0.45989-0.42975 0.75881-1.0572 2.8283-1.3943 4.5989-0.3371 1.7706-1.5322 4.6469-2.6559 6.3918l-2.043 3.1726-1.303-2.7127c-1.3988-2.9121-3.7211-5.9319-4.5619-5.9319-0.28378 0-0.76714 0.93127-1.074 2.0695-0.6409 2.3769-6.1477 8.9678-7.4927 8.9678-0.4953 0-0.90049-1.8625-0.90049-4.139s-0.43703-4.139-0.97118-4.139-0.97119 0.58909-0.97119 1.3091c0 1.7501-4.703 6.9689-6.2802 6.9689-0.68828 0-1.7955 0.62084-2.4605 1.3796-1.7339 1.9785-3.1522 1.7009-2.4232-0.47432 0.34176-1.0197 0.11954-3.3996-0.49385-5.2887-0.61341-1.8891-1.2656-3.8997-1.4494-4.468-0.23153-0.71572-1.9168-0.52587-5.4837 0.61771-5.7639 1.848-7.6959 1.521-4.7315-0.80066 1.0837-0.84872 2.7319-3.7886 3.6628-6.533 0.93089-2.7444 2.3044-5.1796 3.0524-5.4114 1.0472-0.32461 0.99149 0.0765-0.2428 1.7454-0.88145 1.1918-1.6053 2.7991-1.6086 3.5718 0 0.77272-0.66663 2.6048-1.4742 4.0712-0.80745 1.4664-1.3151 2.8112-1.1279 2.9884 0.18705 0.17719 2.3801-0.65589 4.8733-1.8513l4.5331-2.1735 0.0185 1.9444c0.0107 1.0694 0.55659 3.8906 1.214 6.2694l1.1952 4.325 3.0858-1.4182c3.1536-1.4494 6.1405-6.6166 6.1405-10.623 0-1.9804 1.1344-1.6764 1.599 0.42846 0.13636 0.6177 0.84844 2.9361 1.5824 5.1519l1.3346 4.0288 2.1127-2.5437c1.162-1.399 2.6188-4.1433 3.2372-6.0983 1.0737-3.3938 2.7595-4.853 2.7595-2.3884 0 1.776 4.8466 8.1456 5.7816 7.5983 0.4519-0.26447 1.3517-2.6551 1.9996-5.3125 1.3475-5.5264 3.5214-9.285 4.9028-8.4765 0.51939 0.30401 0.72168 0.89402 0.44946 1.3111-0.27222 0.41709 0.84406 4.0101 2.4806 7.9844 1.6366 3.9744 3.2799 7.9758 3.652 8.8922 0.59775 1.4724 1.138 1.2585 4.646-1.8396 2.1832-1.9281 4.1649-4.0865 4.4035-4.7964 0.3607-1.0732 0.84775-1.034 2.8893 0.23292 2.855 1.7716 12.454 4.6262 13.195 3.9241 0.27766-0.26294 0.56231-2.7838 0.63263-5.602l0.12781-5.1239 2.7603 0.57242c1.5182 0.31484 4.7104 0.29549 7.0938-0.0431l4.3334-0.61543-3.8619-2.6495c-2.1242-1.4572-4.2719-3.343-4.7727-4.1906-0.53357-0.90298-2.424-1.6697-4.5654-1.8517-5.7861-0.49168-16.041-6.2433-16.041-8.9969 0-0.51694 1.4204 0.36203 3.1564 1.9533 3.8512 3.53 9.2014 5.7457 13.874 5.7457h3.4966l-2.163-2.8768c-1.2426-1.6526-2.3569-4.7874-2.6185-7.3663-0.41703-4.1108-0.85095-4.7644-5.1433-7.7485-2.5782-1.7924-5.7718-4.479-7.0967-5.9702l-2.409-2.7113-1.229 3.2191c-0.67604 1.7705-1.5022 3.2191-1.8359 3.2191-0.33371 0-1.6332-1.0348-2.8877-2.2994-1.2546-1.2647-2.5326-2.2947-2.84-2.2889-0.30758 5e-3 -1.4189 1.7093-2.4696 3.7855l-1.9105 3.775-1.4763-2.1759c-0.81201-1.1968-2.73-3.3142-4.2622-4.7053-1.5322-1.3912-2.338-2.5294-1.7908-2.5294 0.54717 0 2.4383 1.4492 4.2024 3.2205l3.2074 3.2205 1.3054-2.3595c0.77461-1.4002 1.0649-3.551 0.714-5.29-0.51152-2.5348-0.43965-2.6821 0.53222-1.0909 0.61806 1.0117 2.4944 2.9515 4.1698 4.3105l3.0462 2.4709 2.1021-3.8506c2.0921-3.8321 2.1068-3.8395 3.0587-1.5511 1.2729 3.0604 10.485 10.612 18.328 15.024 1.2088 0.68002 0.69915-1.6584-1.5333-7.0357-0.59125-1.4241-1.075-3.9914-1.075-5.7052 0-2.5425-0.73345-3.6741-3.9852-6.1486-4.6944-3.5724-6.2126-6.1128-7.0972-11.876-0.35837-2.3346-1.1799-4.9312-1.8257-5.7701-0.95798-1.2447-1.1163-0.54811-0.85998 3.7848 0.17277 2.9206-0.20706 6.5519-0.84416 8.0696l-1.1582 2.7593-0.89533-2.2994c-0.4924-1.2647-2.6704-3.464-4.8401-4.8874-2.1696-1.4234-3.6925-2.827-3.3839-3.1192 0.30845-0.29215 2.5405 1.0051 4.9601 2.8828 3.686 2.8605 4.498 3.1702 5.0085 1.9103 0.59981-1.4804-7.5e-4 -7.9214-1.1596-12.423-0.57835-2.2476-0.52775-2.2355 2.2449 0.53669 2.0449 2.0446 3.1757 4.4832 4.0517 8.7378 1.1129 5.4051 1.6743 6.3049 6.6722 10.693 3.0014 2.6353 5.6133 4.6435 5.8043 4.4626 0.19093-0.18087 0.56971-6.998 0.84164-15.149 0.52152-15.631-0.068-19.35-3.8323-24.179l-1.9341-2.4814 3.0405-3.2796c3.9664-4.2784 5.7876-7.7078 6.5776-12.386l0.64263-3.8061-3.4313 3.2496c-2.8096 2.6609-4.1514 3.2496-7.4057 3.2496-3.2224 0-4.4812-0.54001-6.6526-2.8539-2.6054-2.7763-7.2222-5.4476-11.662-6.7476-1.64-0.48024-2.1852-0.27105-2.1852 0.83841 0 0.81304-0.90592 3.16-2.0132 5.2154l-2.0131 3.7371-4.2179-4.169c-2.5872-2.5572-5.6577-4.5476-7.9416-5.1483-5.8356-1.5346-6.1516-1.3822-6.1516 2.9655 0 6.5949-2.8158 7.8236-7.8833 3.4401-3.8631-3.3416-7.0676-4.068-14.393-3.2628l-5.6576 0.62187 1.018 2.5541c0.85026 2.1334 0.65865 3.0319-1.1631 5.4549-2.9548 3.93-6.7968 5.6323-12.711 5.6323-2.7239 0-6.1326 0.56367-7.575 1.2526-1.4424 0.68892-5.0262 1.4826-7.964 1.7638-2.9378 0.28119-6.0692 0.783-6.9584 1.1152-1.3915 0.5198-1.5443 0.0914-1.0961-3.0735 0.68604-4.8436-2.6974-8.4162-7.9702-8.4162-6.8412 0-9.9967 6.1194-7.3176 14.191 0.51562 1.5535 1.1903 4.0036 1.4992 5.4445 0.32059 1.4949 3.4022 5.4619 7.1766 9.2386 3.6382 3.6403 7.0766 7.4281 7.641 8.4174 0.56447 0.98929 2.4305 2.5769 4.1468 3.528l3.1206 1.7293-0.4116-3.3389c-0.45239-3.6696 0.34721-4.2453 2.2997-1.6558 0.6979 0.9257 2.4709 2.422 3.9398 3.325 2.314 1.4226 2.6708 1.4514 2.6708 0.21631 0-0.78405 0.47171-2.5907 1.0482-4.0148l1.0483-2.5893 1.8188 3.5229c1.0003 1.9376 4.2535 6.3413 7.2292 9.7859 5.7739 6.6838 9.2919 14.153 7.4762 15.873-0.73645 0.69741-2.7272 0.64343-6.8532-0.18581-3.1984-0.64282-7.1546-0.9826-8.7915-0.75507-3.3428 0.46465-3.6061 0.0331-1.5502-2.5411 2.1698-2.717 1.8247-3.1651-2.4381-3.1651-4.9318 0-17.176-2.3642-21.876-4.2239-4.57-1.8084-5.6245-1.3581-6.9696 2.9764-0.60544 1.9508-1.714 5.4856-2.4633 7.8552l-1.3625 4.3083 4.9445-0.47617c2.7195-0.2619 6.2173-0.85732 7.7728-1.3232 1.5556-0.46584 2.9693-0.71342 3.1417-0.55017 0.17238 0.16326-0.52095 1.8467-1.5407 3.741l-1.8541 3.4442 3.0827-0.62843c1.6956-0.34564 4.2465-1.1914 5.6688-1.8794 2.4749-1.1972 2.6736-1.1103 4.6257 2.023 2.4005 3.8532 4.3208 3.6949 4.7469-0.39136 0.44053-4.2244 1.8301-3.5995 4.4442 1.9984 2.5136 5.3829 5.1288 7.2834 5.6314 4.0924 0.16674-1.0595 1.5209-2.7842 3.009-3.8326 3.0102-2.1207 5.2786-1.4844 6.5792 1.8452 1.3462 3.4466-1.6563 6.9992-10.39 12.293-17.495 10.605-27.665 25.109-30.568 43.596-2.6186 16.674 5.56 33.905 21.968 46.281 7.8518 5.9224 20.325 12.173 19.532 9.788-3.3661-10.129-3.2553-29.455 0.18772-32.716 0.51668-0.48933 0.33896 1.5273-0.39497 4.4814-2.7337 11.004-1.5461 19.772 5.4615 40.322 6.338 18.586 5.4607 26.53-3.5096 31.781-2.881 1.6863-4.7359 1.9642-12.482 1.8702-8.4052-0.10209-9.321 0.0671-12.02 2.2173-2.6161 2.0848-6.0081 8.9296-6.0081 12.124 0 1.7304 1.9215 1.5013 5.6975-0.6788zm68.113-161.19c0-1.3494-3.9628-5.0064-7.9782-7.3628-3.1534-1.8505-3.6744-1.9068-3.6815-0.39747-0.0107 2.2914-2.0483 8.048-2.8485 8.048-0.45121 0-1.1184-1.1249-1.4828-2.4999-0.3644-1.3749-1.893-4.0846-3.3971-6.0216l-2.7347-3.5217-2.1293 3.2629c-1.985 3.0418-5.4236 6.0209-6.9496 6.0209-0.36449 0-0.43577-1.6019-0.15851-3.5598 0.30127-2.1273 0.069-3.8147-0.57804-4.1933-0.59515-0.34838-1.0821-0.22684-1.0821 0.27007 0 1.1462-4.7752 6.5633-5.7857 6.5633-0.41635 0-0.99915-1.5521-1.2953-3.4492-0.29602-1.897-0.7992-4.8978-1.1181-6.6683-0.31895-1.7706 0.36108-0.56988 1.5113 2.6682l2.0913 5.8874 2.2933-3.588c1.2613-1.9734 2.2955-4.1298 2.2982-4.792 0-0.6622 0.42936-0.9556 0.94807-0.65202 0.51862 0.30358 1.2405 2.6757 1.604 5.2713l0.66109 4.7193 2.5234-2.7667c1.3879-1.5217 3.0143-3.5589 3.6141-4.5272 1.0703-1.7277 1.1308-1.7263 3.2597 0.0792 1.193 1.0118 3.0272 3.4318 4.0759 5.3778 1.0488 1.946 2.0472 3.3947 2.2188 3.2192 0.17151-0.17549 0.55581-2.1816 0.85406-4.458 0.29816-2.2764 0.56436-4.2234 0.59145-4.3266 0.1484-0.56407 7.6013 4.2804 10.359 6.7333 1.7723 1.5766 3.4556 2.6459 3.7404 2.3761 0.28494-0.26985 0.51803-2.5959 0.51803-5.1691 0-3.9875-0.42266-5.0563-2.8616-7.2364-2.8043-2.5066-2.8828-2.5204-3.9189-0.68684-1.3448 2.3797-2.9313 2.4141-2.9313 0.0635 0-1.7156-5.2994-8.31-6.6781-8.31-0.3574 0-1.4735 1.4486-2.4803 3.2192-1.0068 1.7706-2.0895 3.2175-2.406 3.2155-1.3594-8e-3 -8.8302-8.338-8.8269-9.8412 0-1.1959 0.50347-0.89007 1.8132 1.1071 0.99518 1.5176 2.9833 3.7832 4.4178 5.0346 2.9048 2.534 3.9608 1.9178 5.0818-2.9652 0.31932-1.3912 0.87436-2.5294 1.2333-2.5294 1.2419 0 7.7454 6.9073 8.6601 9.1977l0.91827 2.2994 0.69556-2.5294c0.85048-3.093 1.7889-3.208 3.1468-0.38569 0.5672 1.179 3.3689 3.6303 6.2258 5.4472l5.1945 3.3035 1.0425-3.3227c0.57338-1.8275 1.333-2.8776 1.6879-2.3337 0.52939 0.81115-0.82085 6.317-1.8396 7.5017-0.15267 0.17755-1.8359-0.80285-3.7406-2.1787l-3.4629-2.5015-0.0136 4.4781c-0.01 2.463-0.27679 5.4094-0.59892 6.5476-0.62982 2.2255-2.3014 2.8516-2.3014 0.8619zm-25.901-35.704c-6.1735-5.1544-7.1108-6.3338-6.974-8.7768l0.1455-2.6001 0.40275 2.5114c0.23522 1.4664 1.8794 3.664 3.9515 5.2816l3.5488 2.7703 2.1807-2.5223c1.1995-1.3873 2.1965-3.0397 2.2158-3.672 0.0505-1.6489 0.34632-1.5104 4.526 2.1162 3.7136 3.2222 3.7715 3.2376 4.3238 1.1497 0.30787-1.1639 0.19861-3.3552-0.24279-4.8695-1.2134-4.1624-0.97566-4.7906 0.863-2.2802 0.91603 1.2508 2.389 3.0189 3.2733 3.9293 1.5392 1.5846 1.6332 1.5651 2.2059-0.45991 0.32904-1.1632 0.60418-3.2924 0.61146-4.7314l0.0136-2.6164 3.3484 3.7956c3.1276 3.5454 3.4158 3.6764 4.3704 1.987 0.56213-0.99468 1.0287-3.3878 1.0368-5.3181 0.0106-2.4936 0.27329-3.1228 0.90748-2.1733 1.0591 1.5855 0.32379 5.9025-1.6319 9.5815l-1.4034 2.6399-1.8428-2.8698c-2.3563-3.6696-3.1407-3.6107-4.6527 0.34936-1.4289 3.7423-2.358 4.0272-3.7504 1.1497-0.90097-1.8622-1.0725-1.634-1.712 2.2781l-0.71082 4.3475-8.5178-6.6102-1.9146 2.1767c-1.053 1.1972-1.9292 2.6941-1.9469 3.3264-0.0388 1.3705-1.0632 1.4133-2.6246 0.10966zm54.917-19.197c-2.2471-2.0245-3.7951-3.956-3.44-4.2923 0.35506-0.33628 0.7549-0.43261 0.88844-0.21406 0.13354 0.21854 1.9703 2.1501 4.0818 4.2923 4.8617 4.9324 3.8622 5.0722-1.5302 0.21407zm-73.151-7.5611c-2.0442-2.7639-1.903-4.595 0.58522-7.5908 1.7981-2.1648 2.6194-2.4586 5.7591-2.0598 2.014 0.25583 6.3479 2.0353 9.6309 3.9544 3.7916 2.2164 7.7135 3.7012 10.751 4.0702 2.6302 0.31957 4.7822 0.44005 4.7822 0.26774 0-0.1723-1.0926-1.9524-2.428-3.9558-3.1712-4.7575-3.0626-5.2681 0.51414-2.4178 3.6716 2.9259 8.0633 3.7816 17.877 3.4833l4.7948-0.14573-2.7816-2.7497c-3.8902-3.8455-2.6929-4.1903 1.6031-0.46165 4.0292 3.497 3.7769 3.7432-4.7037 4.5897-3.6036 0.35968-7.4789 0.0988-10.7-0.72036-4.8192-1.2256-5.0063-1.207-4.0934 0.40853 0.52619 0.93107 1.3783 1.6928 1.8936 1.6928 0.51541 0 0.9371 0.47181 0.9371 1.0484 0 1.7733-10.409 0.21393-15.383-2.3045-11.363-5.7534-12.793-6.2516-15.498-5.3993-1.5051 0.47427-3.0114 1.8625-3.5306 3.2536-1.7318 4.6404 4.8493 8.2474 7.5638 4.1455 0.78675-1.189 0.603-2.0022-0.77978-3.4491-1.8936-1.9818-1.716-2.2641 0.84038-1.3351 1.815 0.65959 2.0591 5.0169 0.37079 6.6159-1.9318 1.8295-6.3402 1.3116-8.0058-0.94048zm44.764-11.463c-1.421-1.3458-0.30699-1.6754 6.0635-1.7942 7.8812-0.14695 12.668-1.4603 18.315-5.0254 4.525-2.8566 5.7518-2.2945 1.4568 0.66747-3.9182 2.702-10.029 4.7792-15.929 5.4143-2.857 0.30754-6.1129 0.73357-7.2355 0.94672-1.1225 0.21316-2.3244 0.11916-2.6708-0.20889zm67.695 234.75 3.5258-2.266 2.3927 2.266c3.1347 2.9687 6.807 2.9024 9.8208-0.17752 1.3152-1.344 2.4963-2.2752 2.6245-2.0695 0.12819 0.20575 0.71469 1.2019 1.3032 2.2136 0.74501 1.2807 2.2768 1.9246 5.0416 2.1197 3.3313 0.235 4.2258-0.0874 5.5495-2.0006l1.5779-2.2808 3.4708 2.2306c9.5021 6.1069 14.565-0.30013 10.318-13.058-2.1592-6.4872-0.97197-10.134 5.9873-18.391 2.9346-3.4817 5.3382-7.198 5.3412-8.2582 0-1.6904-0.54289-1.9169-4.4485-1.8395-3.7375 0.0745-4.831-0.32689-6.7983-2.4925-3.1999-3.5224-3.0097-7.5563 0.56717-12.033l2.8575-3.5761-5.0697-3.4405c-2.7884-1.8923-7.8167-6.3693-11.174-9.949-7.5402-8.0393-14.955-11.852-24.731-12.716l-6.5553-0.57973 0.01 4.9618c0.0126 6.3876 3.0103 12.532 11.193 22.941 9.304 11.834 9.9536 13.666 10.33 29.134l0.31855 13.082-2.6922 2.5543c-2.4327 2.308-3.5297 2.6025-11.379 3.0552-7.4734 0.431-9.0434 0.81658-11.236 2.7593-2.9127 2.5803-3.7837 3.9838-4.683 7.547-0.52415 2.0766-0.31176 2.5294 1.1869 2.5294 1.0039 0 3.412-1.0198 5.3512-2.266zm-199.98-33.81c0.83144-1.1243 1.5118-2.9399 1.5118-4.0346 0-1.6539 0.73908-2.0952 4.3736-2.6114l4.3736-0.62112-2.9168-2.3244c-3.4653-2.7614-3.7859-4.9188-0.7316-4.9236 3.042 0 8.1937-3.1589 8.977-5.4959 0.36402-1.0863 0.13509-2.5376-0.51783-3.2827-1.7053-1.946-4.9115-1.6526-5.507 0.50403-0.64011 2.3183-1.7118 2.3244-4.1414 0.0229-3.6549-3.4615-3.7369-10.626-0.16946-14.799 1.6813-1.9664 1.6664-2.0953-0.47715-4.1254-2.3059-2.1838-3.9526-6.5061-2.8695-7.5319 0.34468-0.32643 2.1664-0.0663 4.0484 0.57835 2.6742 0.91581 3.7299 0.92971 4.8316 0.0635 3.3372-2.623-0.27835-5.9958-5.6301-5.2519-2.1538 0.2994-3.0436 0-3.3529-1.1172-0.23396-0.84738-2.1179-1.9538-4.2404-2.4903-3.7927-0.95877-3.8194-0.9471-3.8194 1.666 0 2.8634-1.6345 3.4036-4.7405 1.5666-2.5238-1.4927-4.9714-0.33388-4.9714 2.3537 0 2.5076 2.5217 3.7442 7.0411 3.453 3.4664-0.22341 3.5954 2.3543 0.30321 6.0597l-2.3676 2.6647 1.8756 2.6946c2.7778 3.9907 2.544 10.619-0.49075 13.91l-2.3791 2.5807-1.5607-2.0695c-2.169-2.876-5.1357-2.6832-5.9492 0.38658-0.53271 2.0102-0.0924 2.9287 2.4248 5.0587 1.6916 1.4314 4.1614 2.6027 5.4884 2.6027 3.2838 0 3.1554 2.5824-0.25813 5.1913l-2.6708 2.0412 4.1276 0.64024c2.2702 0.35219 4.1275 1.0147 4.1275 1.4721 0 1.7543 2.8606 7.2111 3.7801 7.2111 0.53113 0 1.6461-0.91987 2.4776-2.0442zm53.744-23.293c3.75-1.4782 11.866-8.3508 11.866-10.048 0-0.53401-2.2402-2.9977-4.978-5.475-5.7618-5.2132-12.029-13.993-13.653-19.126-0.84668-2.6766-4.9382-7.2584-16.463-18.436l-15.336-14.874-4.4201 1.1196c-2.4311 0.61578-5.3972 1.1345-6.5914 1.1528-2.058 0.0313-2.0208 0.14946 0.71537 2.267l2.8867 2.234 4.047-2.2461c3.9227-2.1772 4.0624-2.1906 4.5461-0.43846 0.2833 1.0257-0.32778 2.8034-1.4123 4.1093-1.0514 1.2658-1.6503 2.7017-1.3311 3.191 0.31923 0.48912-0.6908 1.512-2.2445 2.2729-2.8798 1.4104-4.8786 6.053-2.606 6.053 2.0446 0 6.553-5.5627 6.0335-7.4442-0.26611-0.96346-0.13743-1.9544 0.2859-2.2022 1.7559-1.0278 1.6462 3.3396-0.1378 5.4876-1.0514 1.2658-1.6503 2.7017-1.3311 3.191 0.31923 0.48914-0.6908 1.512-2.2445 2.273-2.8611 1.4012-4.88 6.053-2.6272 6.053 2.208 0 6.6424-5.3156 6.0933-7.3041-0.28727-1.0405-0.17607-2.0945 0.24726-2.3423 1.1826-0.69222 1.8206 2.7555 0.82232 4.4448-0.53474 0.90496-0.52988 2.1402 0.0126 3.1199 0.98216 1.7747-0.0136 5.183-1.8237 6.2425-0.77587 0.4541-0.25045 1.3452 1.6315 2.7664 2.7232 2.0567 2.776 2.2727 2.776 11.348 0 7.5839 0.30621 9.5413 1.6996 10.861 1.5636 1.4816 1.6996 1.4869 1.6996 0.0663 0-1.5518 2.7239-3.4486 4.9521-3.4486 0.6573 0 4.7639 3.4802 9.1256 7.7336 4.3882 4.2793 8.9801 7.9208 10.28 8.1527 1.2924 0.2305 2.6916 0.47543 3.1094 0.54431 0.41771 0.069 2.3844-0.51516 4.3704-1.298zm-46.891-36.696c0-2.4449-5.0431-5.0545-11.075-5.7311-4.87-0.54626-4.9497-0.51535-4.9497 1.9174 0 2.0138 0.76581 2.806 4.1276 4.2696 5.4018 2.3518 11.897 2.103 11.897-0.45584zm5.5311-0.22361c2.4599-2.232 3.6254-4.8867 2.1455-4.8867-1.7021 0-6.2198 4.0539-6.2198 5.5813 0 2.384 0.83911 2.2408 4.0743-0.69462zm-5.2469-7.227c0.20841-1.3794-0.64478-2.3-3.2023-3.455-5.5168-2.4916-12.113-3.6455-13.701-2.397-2.9258 2.2996-0.97631 5.3872 3.7521 5.9426 1.9037 0.22359 4.485 0.80416 5.7362 1.2902 3.6342 1.4115 7.0902 0.76791 7.415-1.3809zm0-7.3881c0.29698-1.9678-0.96119-2.672-11.234-6.2876-7.6689-2.6992-11.064-1.4264-8.6128 3.2293 0.85376 1.6218 2.2868 2.3627 5.5004 2.8439 2.3903 0.35798 5.657 1.0578 7.2595 1.5553 4.2811 1.329 6.7543 0.86101 7.0867-1.341zm5.1491-6.9248c1.5499-1.5711 2.8179-3.4252 2.8179-4.1202 0-2.2545-6.121 1.734-6.9013 4.497-0.93584 3.314 0.58126 3.1741 4.0836-0.37675zm-5.1448-0.46531c0.33789-2.2415-3.3898-4.2657-10.72-5.8216-5.3784-1.1415-7.7506-0.4941-7.3478 2.0052 0.21986 1.3643 2.011 2.3611 7.0925 3.9469 8.132 2.5377 10.578 2.5087 10.976-0.13052zm7.1684-10.434c9.3934-4.1816 10.206-14.726 1.3482-17.495-3.6778-1.1495-6.0256-0.53014-7.4334 1.961-1.0779 1.9075-0.357 5.3757 1.1174 5.3757 0.49813 0 0.90573 0.64197 0.90573 1.4266 0 3.6614-14.342 5.3204-20.224 2.3392-2.0663-1.0473-2.9659-3.7658-1.2462-3.7658 1.2851 0 2.1736-2.7701 1.517-4.7294-0.89459-2.6694-3.585-3.5942-7.4873-2.5738-8.8049 2.3024-8.5577 12.649 0.40708 17.039 7.351 3.6001 23.465 3.8189 31.095 0.42218zm-5.8444-8.1022c0.54397-0.51521 0.30759-1.3069-0.60436-2.0237-1.9971-1.5696-1.8905-3.9042 0.3-6.5767 1.645-2.0069 1.8505-5.0103 2.4167-35.305 0.97557-52.208 4.858-91.479 9.9753-100.9 2.0372-3.7506 1.7515-3.7656-3.5129-0.18374-6.7813 4.6142-11.945 10.623-16.52 19.223-8.6373 16.238-11.639 38.085-11.639 84.717 0 26.479 0.18039 29.943 1.6886 32.432 1.4327 2.3642 1.5089 3.2374 0.50248 5.7625-0.65235 1.6368-0.94837 3.2012-0.65781 3.4763 1.9283 1.8262 15.976 1.3418 18.05-0.62244zm78.927-49.784c0.29427-0.4509-0.35593-2.7273-1.4448-5.0588-1.6976-3.6351-2.3814-4.2389-4.8-4.2389-7.5764 0-19.756-3.3858-32.312-8.9823-7.2508-3.2318-9.7551-3.9745-10.625-3.151-2.2185 2.1011 1.4686 7.0881 7.1786 9.7096 5.0655 2.3255 19.226 5.183 25.686 5.183 3.7474 0 3.836 0.16911 1.7035 3.2516l-1.5686 2.2671 4.2393 0.10881c2.3315 0.0599 5.5503 0.42478 7.1528 0.81096 4.162 1.003 4.2009 1.0038 4.7907 0.1z" stroke="#000" stroke-width="4.1699"/>
<path d="m511.15 434.67 3.2695-1.8877 1.3987 1.8911c1.8634 2.5196 7.0196 2.4911 10.441-0.058l2.6162-1.9489 2.1906 1.9489c2.8802 2.5626 8.259 2.566 11.693 9e-3 2.4045-1.7912 2.7397-1.8271 4.3296-0.46458 0.94778 0.81234 3.7276 1.7372 6.1774 2.0551 4.4121 0.57275 4.4789 0.5413 7.0604-3.3315 2.162-3.2434 2.5001-4.5561 1.9842-7.7018-0.34195-2.0855-0.71032-5.4421-0.81861-7.4591-0.19589-3.652-0.17482-3.6748 5.1449-5.5271 2.9378-1.023 6.3386-2.395 7.5571-3.049 2.1246-1.1402 7.9819-8.0245 7.9819-9.3813 0-0.35954-2.2883-0.91031-5.0851-1.224-11.124-1.2478-13.008-7.2216-5.7766-18.317 11.794-18.096 18.911-35.719 18.959-46.945 0.0214-5.0179 0.30709-6.7028 0.95187-5.6115 2.6351 4.4594-2.0856 23.157-9.2367 36.585l-2.8794 5.4067 2.7476-0.63252c1.5112-0.34787 10.396-4.0964 19.743-8.33 25.586-11.588 34.374-13.859 50.933-13.162 13.873 0.58433 19.78 3.2945 29.575 13.568 5.1889 5.4424 10.187 9.3364 19.331 15.06 19.481 12.194 20.293 13.251 21.22 27.591 0.93865 14.53 0.47151 15.318-10.518 17.746-9.3927 2.0752-15.282 6.454-16.861 12.537-0.84337 3.2488 0.93147 3.3424 5.6671 0.29884l3.4706-2.2305 1.5432 2.2305c2.0288 2.9325 6.3413 2.9442 9.9222 0.0267l2.705-2.2036 2.7652 2.2036c4.2964 3.4238 10.01 2.5935 11.623-1.689 0.31001-0.82311 1.1373-0.55941 2.8125 0.89649 3.1389 2.728 11.185 3.8982 12.054 1.7532 0.33166-0.81843-0.29835-2.8396-1.4-4.4915-4.6814-7.0197-6.1459-10.367-6.2069-14.188-0.0845-5.3147 1.5011-7.8791 7.546-12.201 7.3431-5.2506 9.6123-12.025 4.028-12.025-3.4479 0-6.9238-3.0476-9.1404-8.0143-4.5059-10.096-3.6228-21.414 3.1399-40.243 6.8691-19.125 7.6311-22.651 7.6586-35.442 0.0225-10.342-0.23813-12.13-2.5911-17.8-1.4386-3.4667-4.3576-8.6286-6.4867-11.471l-3.8711-5.1678 4.9701-4.1175c15.176-12.572 12.071-33.149-6.1972-41.077-5.5887-2.4254-6.9851-2.6395-16.779-2.5737-5.8757 0.0395-14.835 0.81272-19.909 1.7183-5.1739 0.9233-13.932 1.6654-19.939 1.6895-9.5435 0.0384-11.164-0.19687-14.841-2.1545-3.8349-2.0413-4.4924-3.0104-5.2433-7.7284-0.15431-0.96983-0.83239-1.9373-1.5067-2.15-1.3044-0.4113-7.3283 4.8167-8.2183 7.1325-0.43907 1.1426-0.79745 1.0636-2.0856-0.4599-0.85552-1.0117-2.05-3.3365-2.6545-5.1662-1.52-4.6015 0.34653-8.0509 5.7554-10.636l4.1964-2.0056-2.4745-1.5356c-5.1062-3.1686-13.789-1.001-16.929 4.2263-0.88825 1.4786-1.8571 2.6911-2.1529 2.6943-0.29583 2e-3 -1.9841-1.4074-3.7519-3.1346-6.5928-6.442-4.325-15.973 4.4931-18.882 4.7022-1.5516 8.8634-0.36801 9.7293 2.7675 1.3218 4.787 5.4307-1.5053 4.6938-7.188-0.48997-3.7781-0.41635-3.909 2.1979-3.909 3.6355 0 11.373 4.7714 13.767 8.4889 2.7798 4.318 2.5775 11.118-0.48152 16.185l-2.402 3.9792 3.1421-0.62922c4.6075-0.92267 9.0838-3.784 11.348-7.2541 2.394-3.6685 2.6514-10.812 0.52852-14.667-2.0572-3.7357-1.8213-4.3288 1.22-3.0664 5.1726 2.1471 7.9381 4.5151 10.012 8.5732 1.8681 3.6547 1.9724 4.5629 0.96109 8.3666-0.62399 2.3468-2.0123 5.4345-3.0853 6.8614-1.6706 2.2219-1.7276 2.5944-0.39653 2.5944 2.4789 0 7.6548-2.3461 9.4932-4.303 0.92876-0.98864 2.2828-3.423 3.009-5.4097l1.3205-3.6121 1.5173 2.7534c2.1456 3.8934 6.3169 7.397 11.403 9.5772 5.4698 2.3449 7.7477 2.477 4.8873 0.28343-1.9289-1.4792-5.4832-11.908-4.406-12.929 0.63381-0.60023 8.0604 5.1139 16.54 12.726 8.021 7.2007 13.061 9.5593 20.428 9.5593 9.4108 6e-5 14.89-8.192 10.661-15.938-2.466-4.5162-7.9596-5.1436-11.172-1.2758-1.4772 1.7785-1.8827 3.1933-1.45 5.0588 0.52995 2.2852 0.32317 2.5897-1.7589 2.5897-2.7355 0-8.1277-3.4998-17.704-11.491-14.603-12.186-32.348-22.515-45.16-26.288-8.2226-2.4213-25.787-3.3662-34.146-1.8369-9.0465 1.6553-19.747 6.8324-25.576 12.374-10.329 9.8204-10.493 22.889-0.43606 34.789l2.8808 3.4089-1.9504 3.0295c-2.8373 4.4074-2.5943 10.338 0.60254 14.707 1.408 1.9242 2.8284 3.4978 3.1564 3.4968 0.32796-7.5e-4 0.6876-1.2381 0.79909-2.7491 0.28233-3.8224 1.9229-6.3835 4.7387-7.3974 2.5362-0.9132 4.1757-0.48189 15.788 4.1532 12.216 4.8761 32.307 5.2113 53.671 0.89536 10.473-2.1158 22.823-1.9914 28.256 0.28472 9.9596 4.1723 12.267 15.027 4.9467 23.267-3.1692 3.5669-6.2256 5.0195-16.487 7.8359-7.8088 2.1431-9.6585 2.2854-27.407 2.1082-15.164-0.15138-20.613 0.13981-26.803 1.4322-6.7198 1.403-10.853 1.5445-30.592 1.0471l-22.823-0.57513 2.5309 2.0957c1.392 1.1526 3.3587 2.5708 4.3704 3.1515 1.7214 0.98805 1.664 1.1208-0.89456 2.0695-1.5037 0.55755-4.8411 1.0137-7.4165 1.0137h-4.6824l-0.63011 3.9793c-0.34661 2.1886-0.32029 4.7439 0.0582 5.6783 0.55844 1.3783 0.35031 1.5762-1.1022 1.0483-0.98478-0.35789-3.7275-1.0618-6.0949-1.5643-2.3674-0.50246-5.554-1.5256-7.0815-2.2737-2.5686-1.258-2.854-1.2242-3.8002 0.45012-0.84484 1.4951-8.7764 7.3983-9.9405 7.3983-0.18785 0-0.43034-1.1382-0.53882-2.5294-0.10848-1.3912-1.2527-5.0128-2.5428-8.048-1.2901-3.0352-2.6372-6.3464-2.9935-7.3582-0.53754-1.5262-0.78092-1.6046-1.4292-0.45989-0.42975 0.75881-1.0572 2.8283-1.3943 4.5989-0.3371 1.7706-1.5322 4.6469-2.6559 6.3918l-2.043 3.1726-1.303-2.7127c-1.3988-2.9121-3.7211-5.9319-4.5619-5.9319-0.28378 0-0.76714 0.93127-1.074 2.0695-0.6409 2.3769-6.1477 8.9678-7.4927 8.9678-0.4953 0-0.90049-1.8625-0.90049-4.139s-0.43703-4.139-0.97118-4.139-0.97119 0.58909-0.97119 1.3091c0 1.7501-4.703 6.9689-6.2802 6.9689-0.68828 0-1.7955 0.62084-2.4605 1.3796-1.7339 1.9785-3.1522 1.7009-2.4232-0.47432 0.34176-1.0197 0.11954-3.3996-0.49385-5.2887-0.61341-1.8891-1.2656-3.8997-1.4494-4.468-0.23153-0.71572-1.9168-0.52587-5.4837 0.61771-5.7639 1.848-7.6959 1.521-4.7315-0.80066 1.0837-0.84872 2.7319-3.7886 3.6628-6.533 0.93089-2.7444 2.3044-5.1796 3.0524-5.4114 1.0472-0.32461 0.99149 0.0765-0.2428 1.7454-0.88145 1.1918-1.6053 2.7991-1.6086 3.5718 0 0.77272-0.66663 2.6048-1.4742 4.0712-0.80745 1.4664-1.3151 2.8112-1.1279 2.9884 0.18705 0.17719 2.3801-0.65589 4.8733-1.8513l4.5331-2.1735 0.0185 1.9444c0.0107 1.0694 0.55659 3.8906 1.214 6.2694l1.1952 4.325 3.0858-1.4182c3.1536-1.4494 6.1405-6.6166 6.1405-10.623 0-1.9804 1.1344-1.6764 1.599 0.42846 0.13636 0.6177 0.84844 2.9361 1.5824 5.1519l1.3346 4.0288 2.1127-2.5437c1.162-1.399 2.6188-4.1433 3.2372-6.0983 1.0737-3.3938 2.7595-4.853 2.7595-2.3884 0 1.776 4.8466 8.1456 5.7816 7.5983 0.4519-0.26447 1.3517-2.6551 1.9996-5.3125 1.3475-5.5264 3.5214-9.285 4.9028-8.4765 0.51939 0.30401 0.72168 0.89402 0.44946 1.3111-0.27222 0.41709 0.84406 4.0101 2.4806 7.9844 1.6366 3.9744 3.2799 7.9758 3.652 8.8922 0.59775 1.4724 1.138 1.2585 4.646-1.8396 2.1832-1.9281 4.1649-4.0865 4.4035-4.7964 0.3607-1.0732 0.84775-1.034 2.8893 0.23292 2.855 1.7716 12.454 4.6262 13.195 3.9241 0.27766-0.26294 0.56231-2.7838 0.63263-5.602l0.12781-5.1239 2.7603 0.57242c1.5182 0.31484 4.7104 0.29549 7.0938-0.0431l4.3334-0.61543-3.8619-2.6495c-2.1242-1.4572-4.2719-3.343-4.7727-4.1906-0.53357-0.90298-2.424-1.6697-4.5654-1.8517-5.7861-0.49168-16.041-6.2433-16.041-8.9969 0-0.51694 1.4204 0.36203 3.1564 1.9533 3.8512 3.53 9.2014 5.7457 13.874 5.7457h3.4966l-2.163-2.8768c-1.2426-1.6526-2.3569-4.7874-2.6185-7.3663-0.41703-4.1108-0.85095-4.7644-5.1433-7.7485-2.5782-1.7924-5.7718-4.479-7.0967-5.9702l-2.409-2.7113-1.229 3.2191c-0.67604 1.7705-1.5022 3.2191-1.8359 3.2191-0.33371 0-1.6332-1.0348-2.8877-2.2994-1.2546-1.2647-2.5326-2.2947-2.84-2.2889-0.30758 5e-3 -1.4189 1.7093-2.4696 3.7855l-1.9105 3.775-1.4763-2.1759c-0.81201-1.1968-2.73-3.3142-4.2622-4.7053-1.5322-1.3912-2.338-2.5294-1.7908-2.5294 0.54717 0 2.4383 1.4492 4.2024 3.2205l3.2074 3.2205 1.3054-2.3595c0.77461-1.4002 1.0649-3.551 0.714-5.29-0.51152-2.5348-0.43965-2.6821 0.53222-1.0909 0.61806 1.0117 2.4944 2.9515 4.1698 4.3105l3.0462 2.4709 2.1021-3.8506c2.0921-3.8321 2.1068-3.8395 3.0587-1.5511 1.2729 3.0604 10.485 10.612 18.328 15.024 1.2088 0.68002 0.69915-1.6584-1.5333-7.0357-0.59125-1.4241-1.075-3.9914-1.075-5.7052 0-2.5425-0.73345-3.6741-3.9852-6.1486-4.6944-3.5724-6.2126-6.1128-7.0972-11.876-0.35837-2.3346-1.1799-4.9312-1.8257-5.7701-0.95798-1.2447-1.1163-0.54811-0.85998 3.7848 0.17277 2.9206-0.20706 6.5519-0.84416 8.0696l-1.1582 2.7593-0.89533-2.2994c-0.4924-1.2647-2.6704-3.464-4.8401-4.8874-2.1696-1.4234-3.6925-2.827-3.3839-3.1192 0.30845-0.29215 2.5405 1.0051 4.9601 2.8828 3.686 2.8605 4.498 3.1702 5.0085 1.9103 0.59981-1.4804-7.5e-4 -7.9214-1.1596-12.423-0.57835-2.2476-0.52775-2.2355 2.2449 0.53669 2.0449 2.0446 3.1757 4.4832 4.0517 8.7378 1.1129 5.4051 1.6743 6.3049 6.6722 10.693 3.0014 2.6353 5.6133 4.6435 5.8043 4.4626 0.19093-0.18087 0.56971-6.998 0.84164-15.149 0.52152-15.631-0.068-19.35-3.8323-24.179l-1.9341-2.4814 3.0405-3.2796c3.9664-4.2784 5.7876-7.7078 6.5776-12.386l0.64263-3.8061-3.4313 3.2496c-2.8096 2.6609-4.1514 3.2496-7.4057 3.2496-3.2224 0-4.4812-0.54001-6.6526-2.8539-2.6054-2.7763-7.2222-5.4476-11.662-6.7476-1.64-0.48024-2.1852-0.27105-2.1852 0.83841 0 0.81304-0.90592 3.16-2.0132 5.2154l-2.0131 3.7371-4.2179-4.169c-2.5872-2.5572-5.6577-4.5476-7.9416-5.1483-5.8356-1.5346-6.1516-1.3822-6.1516 2.9655 0 6.5949-2.8158 7.8236-7.8833 3.4401-3.8631-3.3416-7.0676-4.068-14.393-3.2628l-5.6576 0.62187 1.018 2.5541c0.85026 2.1334 0.65865 3.0319-1.1631 5.4549-2.9548 3.93-6.7968 5.6323-12.711 5.6323-2.7239 0-6.1326 0.56367-7.575 1.2526-1.4424 0.68892-5.0262 1.4826-7.964 1.7638-2.9378 0.28119-6.0692 0.783-6.9584 1.1152-1.3915 0.5198-1.5443 0.0914-1.0961-3.0735 0.68604-4.8436-2.6974-8.4162-7.9702-8.4162-6.8412 0-9.9967 6.1194-7.3176 14.191 0.51562 1.5535 1.1903 4.0036 1.4992 5.4445 0.32059 1.4949 3.4022 5.4619 7.1766 9.2386 3.6382 3.6403 7.0766 7.4281 7.641 8.4174 0.56447 0.98929 2.4305 2.5769 4.1468 3.528l3.1206 1.7293-0.4116-3.3389c-0.45239-3.6696 0.34721-4.2453 2.2997-1.6558 0.6979 0.9257 2.4709 2.422 3.9398 3.325 2.314 1.4226 2.6708 1.4514 2.6708 0.21631 0-0.78405 0.47171-2.5907 1.0482-4.0148l1.0483-2.5893 1.8188 3.5229c1.0003 1.9376 4.2535 6.3413 7.2292 9.7859 5.7739 6.6838 9.2919 14.153 7.4762 15.873-0.73645 0.69741-2.7272 0.64343-6.8532-0.18581-3.1984-0.64282-7.1546-0.9826-8.7915-0.75507-3.3428 0.46465-3.6061 0.0331-1.5502-2.5411 2.1698-2.717 1.8247-3.1651-2.4381-3.1651-4.9318 0-17.176-2.3642-21.876-4.2239-4.57-1.8084-5.6245-1.3581-6.9696 2.9764-0.60544 1.9508-1.714 5.4856-2.4633 7.8552l-1.3625 4.3083 4.9445-0.47617c2.7195-0.2619 6.2173-0.85732 7.7728-1.3232 1.5556-0.46584 2.9693-0.71342 3.1417-0.55017 0.17238 0.16326-0.52095 1.8467-1.5407 3.741l-1.8541 3.4442 3.0827-0.62843c1.6956-0.34564 4.2465-1.1914 5.6688-1.8794 2.4749-1.1972 2.6736-1.1103 4.6257 2.023 2.4005 3.8532 4.3208 3.6949 4.7469-0.39136 0.44053-4.2244 1.8301-3.5995 4.4442 1.9984 2.5136 5.3829 5.1288 7.2834 5.6314 4.0924 0.16674-1.0595 1.5209-2.7842 3.009-3.8326 3.0102-2.1207 5.2786-1.4844 6.5792 1.8452 1.3462 3.4466-1.6563 6.9992-10.39 12.293-17.495 10.605-27.665 25.109-30.568 43.596-2.6186 16.674 5.56 33.905 21.968 46.281 7.8518 5.9224 20.325 12.173 19.532 9.788-3.3661-10.129-3.2553-29.455 0.18772-32.716 0.51668-0.48933 0.33896 1.5273-0.39497 4.4814-2.7337 11.004-1.5461 19.772 5.4615 40.322 6.338 18.586 5.4607 26.53-3.5096 31.781-2.881 1.6863-4.7359 1.9642-12.482 1.8702-8.4052-0.10209-9.321 0.0671-12.02 2.2173-2.6161 2.0848-6.0081 8.9296-6.0081 12.124 0 1.7304 1.9215 1.5013 5.6975-0.6788zm68.113-161.19c0-1.3494-3.9628-5.0064-7.9782-7.3628-3.1534-1.8505-3.6744-1.9068-3.6815-0.39747-0.0107 2.2914-2.0483 8.048-2.8485 8.048-0.45121 0-1.1184-1.1249-1.4828-2.4999-0.3644-1.3749-1.893-4.0846-3.3971-6.0216l-2.7347-3.5217-2.1293 3.2629c-1.985 3.0418-5.4236 6.0209-6.9496 6.0209-0.36449 0-0.43577-1.6019-0.15851-3.5598 0.30127-2.1273 0.069-3.8147-0.57804-4.1933-0.59515-0.34838-1.0821-0.22684-1.0821 0.27007 0 1.1462-4.7752 6.5633-5.7857 6.5633-0.41635 0-0.99915-1.5521-1.2953-3.4492-0.29602-1.897-0.7992-4.8978-1.1181-6.6683-0.31895-1.7706 0.36108-0.56988 1.5113 2.6682l2.0913 5.8874 2.2933-3.588c1.2613-1.9734 2.2955-4.1298 2.2982-4.792 0-0.6622 0.42936-0.9556 0.94807-0.65202 0.51862 0.30358 1.2405 2.6757 1.604 5.2713l0.66109 4.7193 2.5234-2.7667c1.3879-1.5217 3.0143-3.5589 3.6141-4.5272 1.0703-1.7277 1.1308-1.7263 3.2597 0.0792 1.193 1.0118 3.0272 3.4318 4.0759 5.3778 1.0488 1.946 2.0472 3.3947 2.2188 3.2192 0.17151-0.17549 0.55581-2.1816 0.85406-4.458 0.29816-2.2764 0.56436-4.2234 0.59145-4.3266 0.1484-0.56407 7.6013 4.2804 10.359 6.7333 1.7723 1.5766 3.4556 2.6459 3.7404 2.3761 0.28494-0.26985 0.51803-2.5959 0.51803-5.1691 0-3.9875-0.42266-5.0563-2.8616-7.2364-2.8043-2.5066-2.8828-2.5204-3.9189-0.68684-1.3448 2.3797-2.9313 2.4141-2.9313 0.0635 0-1.7156-5.2994-8.31-6.6781-8.31-0.3574 0-1.4735 1.4486-2.4803 3.2192-1.0068 1.7706-2.0895 3.2175-2.406 3.2155-1.3594-8e-3 -8.8302-8.338-8.8269-9.8412 0-1.1959 0.50347-0.89007 1.8132 1.1071 0.99518 1.5176 2.9833 3.7832 4.4178 5.0346 2.9048 2.534 3.9608 1.9178 5.0818-2.9652 0.31932-1.3912 0.87436-2.5294 1.2333-2.5294 1.2419 0 7.7454 6.9073 8.6601 9.1977l0.91827 2.2994 0.69556-2.5294c0.85048-3.093 1.7889-3.208 3.1468-0.38569 0.5672 1.179 3.3689 3.6303 6.2258 5.4472l5.1945 3.3035 1.0425-3.3227c0.57338-1.8275 1.333-2.8776 1.6879-2.3337 0.52939 0.81115-0.82085 6.317-1.8396 7.5017-0.15267 0.17755-1.8359-0.80285-3.7406-2.1787l-3.4629-2.5015-0.0136 4.4781c-0.01 2.463-0.27679 5.4094-0.59892 6.5476-0.62982 2.2255-2.3014 2.8516-2.3014 0.8619zm-25.901-35.704c-6.1735-5.1544-7.1108-6.3338-6.974-8.7768l0.1455-2.6001 0.40275 2.5114c0.23522 1.4664 1.8794 3.664 3.9515 5.2816l3.5488 2.7703 2.1807-2.5223c1.1995-1.3873 2.1965-3.0397 2.2158-3.672 0.0505-1.6489 0.34632-1.5104 4.526 2.1162 3.7136 3.2222 3.7715 3.2376 4.3238 1.1497 0.30787-1.1639 0.19861-3.3552-0.24279-4.8695-1.2134-4.1624-0.97566-4.7906 0.863-2.2802 0.91603 1.2508 2.389 3.0189 3.2733 3.9293 1.5392 1.5846 1.6332 1.5651 2.2059-0.45991 0.32904-1.1632 0.60418-3.2924 0.61146-4.7314l0.0136-2.6164 3.3484 3.7956c3.1276 3.5454 3.4158 3.6764 4.3704 1.987 0.56213-0.99468 1.0287-3.3878 1.0368-5.3181 0.0106-2.4936 0.27329-3.1228 0.90748-2.1733 1.0591 1.5855 0.32379 5.9025-1.6319 9.5815l-1.4034 2.6399-1.8428-2.8698c-2.3563-3.6696-3.1407-3.6107-4.6527 0.34936-1.4289 3.7423-2.358 4.0272-3.7504 1.1497-0.90097-1.8622-1.0725-1.634-1.712 2.2781l-0.71082 4.3475-8.5178-6.6102-1.9146 2.1767c-1.053 1.1972-1.9292 2.6941-1.9469 3.3264-0.0388 1.3705-1.0632 1.4133-2.6246 0.10966zm54.917-19.197c-2.2471-2.0245-3.7951-3.956-3.44-4.2923 0.35506-0.33628 0.7549-0.43261 0.88844-0.21406 0.13354 0.21854 1.9703 2.1501 4.0818 4.2923 4.8617 4.9324 3.8622 5.0722-1.5302 0.21407zm-73.151-7.5611c-2.0442-2.7639-1.903-4.595 0.58522-7.5908 1.7981-2.1648 2.6194-2.4586 5.7591-2.0598 2.014 0.25583 6.3479 2.0353 9.6309 3.9544 3.7916 2.2164 7.7135 3.7012 10.751 4.0702 2.6302 0.31957 4.7822 0.44005 4.7822 0.26774 0-0.1723-1.0926-1.9524-2.428-3.9558-3.1712-4.7575-3.0626-5.2681 0.51414-2.4178 3.6716 2.9259 8.0633 3.7816 17.877 3.4833l4.7948-0.14573-2.7816-2.7497c-3.8902-3.8455-2.6929-4.1903 1.6031-0.46165 4.0292 3.497 3.7769 3.7432-4.7037 4.5897-3.6036 0.35968-7.4789 0.0988-10.7-0.72036-4.8192-1.2256-5.0063-1.207-4.0934 0.40853 0.52619 0.93107 1.3783 1.6928 1.8936 1.6928 0.51541 0 0.9371 0.47181 0.9371 1.0484 0 1.7733-10.409 0.21393-15.383-2.3045-11.363-5.7534-12.793-6.2516-15.498-5.3993-1.5051 0.47427-3.0114 1.8625-3.5306 3.2536-1.7318 4.6404 4.8493 8.2474 7.5638 4.1455 0.78675-1.189 0.603-2.0022-0.77978-3.4491-1.8936-1.9818-1.716-2.2641 0.84038-1.3351 1.815 0.65959 2.0591 5.0169 0.37079 6.6159-1.9318 1.8295-6.3402 1.3116-8.0058-0.94048zm44.764-11.463c-1.421-1.3458-0.30699-1.6754 6.0635-1.7942 7.8812-0.14695 12.668-1.4603 18.315-5.0254 4.525-2.8566 5.7518-2.2945 1.4568 0.66747-3.9182 2.702-10.029 4.7792-15.929 5.4143-2.857 0.30754-6.1129 0.73357-7.2355 0.94672-1.1225 0.21316-2.3244 0.11916-2.6708-0.20889zm67.695 234.75 3.5258-2.266 2.3927 2.266c3.1347 2.9687 6.807 2.9024 9.8208-0.17752 1.3152-1.344 2.4963-2.2752 2.6245-2.0695 0.12819 0.20575 0.71469 1.2019 1.3032 2.2136 0.74501 1.2807 2.2768 1.9246 5.0416 2.1197 3.3313 0.235 4.2258-0.0874 5.5495-2.0006l1.5779-2.2808 3.4708 2.2306c9.5021 6.1069 14.565-0.30013 10.318-13.058-2.1592-6.4872-0.97197-10.134 5.9873-18.391 2.9346-3.4817 5.3382-7.198 5.3412-8.2582 0-1.6904-0.54289-1.9169-4.4485-1.8395-3.7375 0.0745-4.831-0.32689-6.7983-2.4925-3.1999-3.5224-3.0097-7.5563 0.56717-12.033l2.8575-3.5761-5.0697-3.4405c-2.7884-1.8923-7.8167-6.3693-11.174-9.949-7.5402-8.0393-14.955-11.852-24.731-12.716l-6.5553-0.57973 0.01 4.9618c0.0126 6.3876 3.0103 12.532 11.193 22.941 9.304 11.834 9.9536 13.666 10.33 29.134l0.31855 13.082-2.6922 2.5543c-2.4327 2.308-3.5297 2.6025-11.379 3.0552-7.4734 0.431-9.0434 0.81658-11.236 2.7593-2.9127 2.5803-3.7837 3.9838-4.683 7.547-0.52415 2.0766-0.31176 2.5294 1.1869 2.5294 1.0039 0 3.412-1.0198 5.3512-2.266zm-199.98-33.81c0.83144-1.1243 1.5118-2.9399 1.5118-4.0346 0-1.6539 0.73908-2.0952 4.3736-2.6114l4.3736-0.62112-2.9168-2.3244c-3.4653-2.7614-3.7859-4.9188-0.7316-4.9236 3.042 0 8.1937-3.1589 8.977-5.4959 0.36402-1.0863 0.13509-2.5376-0.51783-3.2827-1.7053-1.946-4.9115-1.6526-5.507 0.50403-0.64011 2.3183-1.7118 2.3244-4.1414 0.0229-3.6549-3.4615-3.7369-10.626-0.16946-14.799 1.6813-1.9664 1.6664-2.0953-0.47715-4.1254-2.3059-2.1838-3.9526-6.5061-2.8695-7.5319 0.34468-0.32643 2.1664-0.0663 4.0484 0.57835 2.6742 0.91581 3.7299 0.92971 4.8316 0.0635 3.3372-2.623-0.27835-5.9958-5.6301-5.2519-2.1538 0.2994-3.0436 0-3.3529-1.1172-0.23396-0.84738-2.1179-1.9538-4.2404-2.4903-3.7927-0.95877-3.8194-0.9471-3.8194 1.666 0 2.8634-1.6345 3.4036-4.7405 1.5666-2.5238-1.4927-4.9714-0.33388-4.9714 2.3537 0 2.5076 2.5217 3.7442 7.0411 3.453 3.4664-0.22341 3.5954 2.3543 0.30321 6.0597l-2.3676 2.6647 1.8756 2.6946c2.7778 3.9907 2.544 10.619-0.49075 13.91l-2.3791 2.5807-1.5607-2.0695c-2.169-2.876-5.1357-2.6832-5.9492 0.38658-0.53271 2.0102-0.0924 2.9287 2.4248 5.0587 1.6916 1.4314 4.1614 2.6027 5.4884 2.6027 3.2838 0 3.1554 2.5824-0.25813 5.1913l-2.6708 2.0412 4.1276 0.64024c2.2702 0.35219 4.1275 1.0147 4.1275 1.4721 0 1.7543 2.8606 7.2111 3.7801 7.2111 0.53113 0 1.6461-0.91987 2.4776-2.0442zm53.744-23.293c3.75-1.4782 11.866-8.3508 11.866-10.048 0-0.53401-2.2402-2.9977-4.978-5.475-5.7618-5.2132-12.029-13.993-13.653-19.126-0.84668-2.6766-4.9382-7.2584-16.463-18.436l-15.336-14.874-4.4201 1.1196c-2.4311 0.61578-5.3972 1.1345-6.5914 1.1528-2.058 0.0313-2.0208 0.14946 0.71537 2.267l2.8867 2.234 4.047-2.2461c3.9227-2.1772 4.0624-2.1906 4.5461-0.43846 0.2833 1.0257-0.32778 2.8034-1.4123 4.1093-1.0514 1.2658-1.6503 2.7017-1.3311 3.191 0.31923 0.48912-0.6908 1.512-2.2445 2.2729-2.8798 1.4104-4.8786 6.053-2.606 6.053 2.0446 0 6.553-5.5627 6.0335-7.4442-0.26611-0.96346-0.13743-1.9544 0.2859-2.2022 1.7559-1.0278 1.6462 3.3396-0.1378 5.4876-1.0514 1.2658-1.6503 2.7017-1.3311 3.191 0.31923 0.48914-0.6908 1.512-2.2445 2.273-2.8611 1.4012-4.88 6.053-2.6272 6.053 2.208 0 6.6424-5.3156 6.0933-7.3041-0.28727-1.0405-0.17607-2.0945 0.24726-2.3423 1.1826-0.69222 1.8206 2.7555 0.82232 4.4448-0.53474 0.90496-0.52988 2.1402 0.0126 3.1199 0.98216 1.7747-0.0136 5.183-1.8237 6.2425-0.77587 0.4541-0.25045 1.3452 1.6315 2.7664 2.7232 2.0567 2.776 2.2727 2.776 11.348 0 7.5839 0.30621 9.5413 1.6996 10.861 1.5636 1.4816 1.6996 1.4869 1.6996 0.0663 0-1.5518 2.7239-3.4486 4.9521-3.4486 0.6573 0 4.7639 3.4802 9.1256 7.7336 4.3882 4.2793 8.9801 7.9208 10.28 8.1527 1.2924 0.2305 2.6916 0.47543 3.1094 0.54431 0.41771 0.069 2.3844-0.51516 4.3704-1.298zm-46.891-36.696c0-2.4449-5.0431-5.0545-11.075-5.7311-4.87-0.54626-4.9497-0.51535-4.9497 1.9174 0 2.0138 0.76581 2.806 4.1276 4.2696 5.4018 2.3518 11.897 2.103 11.897-0.45584zm5.5311-0.22361c2.4599-2.232 3.6254-4.8867 2.1455-4.8867-1.7021 0-6.2198 4.0539-6.2198 5.5813 0 2.384 0.83911 2.2408 4.0743-0.69462zm-5.2469-7.227c0.20841-1.3794-0.64478-2.3-3.2023-3.455-5.5168-2.4916-12.113-3.6455-13.701-2.397-2.9258 2.2996-0.97631 5.3872 3.7521 5.9426 1.9037 0.22359 4.485 0.80416 5.7362 1.2902 3.6342 1.4115 7.0902 0.76791 7.415-1.3809zm0-7.3881c0.29698-1.9678-0.96119-2.672-11.234-6.2876-7.6689-2.6992-11.064-1.4264-8.6128 3.2293 0.85376 1.6218 2.2868 2.3627 5.5004 2.8439 2.3903 0.35798 5.657 1.0578 7.2595 1.5553 4.2811 1.329 6.7543 0.86101 7.0867-1.341zm5.1491-6.9248c1.5499-1.5711 2.8179-3.4252 2.8179-4.1202 0-2.2545-6.121 1.734-6.9013 4.497-0.93584 3.314 0.58126 3.1741 4.0836-0.37675zm-5.1448-0.46531c0.33789-2.2415-3.3898-4.2657-10.72-5.8216-5.3784-1.1415-7.7506-0.4941-7.3478 2.0052 0.21986 1.3643 2.011 2.3611 7.0925 3.9469 8.132 2.5377 10.578 2.5087 10.976-0.13052zm7.1684-10.434c9.3934-4.1816 10.206-14.726 1.3482-17.495-3.6778-1.1495-6.0256-0.53014-7.4334 1.961-1.0779 1.9075-0.357 5.3757 1.1174 5.3757 0.49813 0 0.90573 0.64197 0.90573 1.4266 0 3.6614-14.342 5.3204-20.224 2.3392-2.0663-1.0473-2.9659-3.7658-1.2462-3.7658 1.2851 0 2.1736-2.7701 1.517-4.7294-0.89459-2.6694-3.585-3.5942-7.4873-2.5738-8.8049 2.3024-8.5577 12.649 0.40708 17.039 7.351 3.6001 23.465 3.8189 31.095 0.42218zm-5.8444-8.1022c0.54397-0.51521 0.30759-1.3069-0.60436-2.0237-1.9971-1.5696-1.8905-3.9042 0.3-6.5767 1.645-2.0069 1.8505-5.0103 2.4167-35.305 0.97557-52.208 4.858-91.479 9.9753-100.9 2.0372-3.7506 1.7515-3.7656-3.5129-0.18374-6.7813 4.6142-11.945 10.623-16.52 19.223-8.6373 16.238-11.639 38.085-11.639 84.717 0 26.479 0.18039 29.943 1.6886 32.432 1.4327 2.3642 1.5089 3.2374 0.50248 5.7625-0.65235 1.6368-0.94837 3.2012-0.65781 3.4763 1.9283 1.8262 15.976 1.3418 18.05-0.62244zm78.927-49.784c0.29427-0.4509-0.35593-2.7273-1.4448-5.0588-1.6976-3.6351-2.3814-4.2389-4.8-4.2389-7.5764 0-19.756-3.3858-32.312-8.9823-7.2508-3.2318-9.7551-3.9745-10.625-3.151-2.2185 2.1011 1.4686 7.0881 7.1786 9.7096 5.0655 2.3255 19.226 5.183 25.686 5.183 3.7474 0 3.836 0.16911 1.7035 3.2516l-1.5686 2.2671 4.2393 0.10881c2.3315 0.0599 5.5503 0.42478 7.1528 0.81096 4.162 1.003 4.2009 1.0038 4.7907 0.1z" fill="#f7b718"/>
</g>
</svg>