<?xml version="1.0" encoding="UTF-8" standalone="no" ?>
<!DOCTYPE svg PUBLIC "-//W3C//DTD SVG 1.1//EN" "http://www.w3.org/Graphics/SVG/1.1/DTD/svg11.dtd">
<svg xmlns="http://www.w3.org/2000/svg" xmlns:xlink="http://www.w3.org/1999/xlink" version="1.1" width="900" height="600" viewBox="0 0 900 600" xml:space="preserve">
<desc>Created with Fabric.js 3.6.6</desc>
<defs>
</defs>
<g transform="matrix(1 0 0 1 600 300.5)"  >
<g style=""   >
		<g transform="matrix(1 0 0 1 0 0)"  >
<path style="stroke: none; stroke-width: 1; stroke-dasharray: none; stroke-linecap: butt; stroke-dashoffset: 0; stroke-linejoin: miter; stroke-miterlimit: 4; fill: rgb(222,0,0); fill-rule: nonzero; opacity: 1;"  transform=" translate(-600, -300)" d="M 0 0 h 1200 v 600 H 0 z" stroke-linecap="round" />
</g>
		<g transform="matrix(1 0 0 1 0 0)"  >
<path style="stroke: none; stroke-width: 1; stroke-dasharray: none; stroke-linecap: butt; stroke-dashoffset: 0; stroke-linejoin: miter; stroke-miterlimit: 4; fill: rgb(6,142,107); fill-rule: nonzero; opacity: 1;"  transform=" translate(-600, -300)" d="M 0 225 h 1200 v 150 H 0 z" stroke-linecap="round" />
</g>
		<g transform="matrix(1 0 0 1 -450 -242.86)"  >
<path style="stroke: none; stroke-width: 0.12000027; stroke-dasharray: none; stroke-linecap: butt; stroke-dashoffset: 0; stroke-linejoin: miter; stroke-miterlimit: 4; fill: rgb(255,217,0); fill-rule: nonzero; opacity: 1;"  transform=" translate(-150, -57.14)" d="m 150 30 l -6.735 20.73 h -21.797 l 17.634 12.81 l -6.736 20.73 L 150 71.46 l 17.634 12.812 l -6.736 -20.73 l 17.633 -12.812 h -21.796 z m 0 10.8 l 4.31 13.267 h 13.95 l -11.285 8.2 l 4.31 13.266 l -11.285 -8.2 l -11.285 8.2 l 4.31 -13.267 l -11.285 -8.2 h 13.95 z" stroke-linecap="round" />
</g>
		<g transform="matrix(0.79 0 0 0.79 -444.08 -140.51)"  >
<path style="stroke: none; stroke-width: 0.48919073; stroke-dasharray: none; stroke-linecap: butt; stroke-dashoffset: 0; stroke-linejoin: miter; stroke-miterlimit: 4; fill: rgb(255,217,0); fill-rule: nonzero; opacity: 1;"  transform=" translate(-205.77, -198.22)" d="m 137.437 171.694 l 18.863 18.994 l 17.789 -17.666 c 27.058 29.021 55.438 56.995 82.287 86.128 c 4.034 4.062 10.598 4.085 14.66 0.05 c 4.063 -4.034 4.085 -10.598 0.05 -14.66 c -28.818 -27.19 -57.725 -54.602 -86.552 -81.891 l 23.965 -23.8 l -33.34 -4.616 z" stroke-linecap="round" />
</g>
		<g transform="matrix(0.79 0 0 0.79 -454.73 -150)"  >
<path style="stroke: none; stroke-width: 0.50003481; stroke-dasharray: none; stroke-linecap: butt; stroke-dashoffset: 0; stroke-linejoin: miter; stroke-miterlimit: 4; fill: rgb(255,217,0); fill-rule: nonzero; opacity: 1;"  transform=" translate(-192.31, -186.2)" d="M 198.289 110.195 c 15.517 8.74 27.298 21.282 34.248 34.393 c 7.044 13.289 10.14 27.162 10.203 38.254 c 0.13 22.744 -18.437 41.182 -41.181 41.182 c -12.136 0 -23.047 -5.249 -30.583 -13.6 l -4.17 3.51 a 6.224 6.224 0 0 0 -6.973 1.789 a 7.815 7.815 0 0 0 -6.404 5.291 c -3.135 6.289 -8.636 11.22 -15.291 13.478 c -0.064 0.022 -0.12 0.05 -0.176 0.078 c -3.078 1.128 -6.163 3.165 -8.79 5.803 c -5.19 5.236 -7.728 11.936 -6.3 16.638 a 3.931 3.931 0 0 0 -0.215 1.27 c 0 2.17 1.76 3.93 3.931 3.93 a 3.933 3.933 0 0 0 1.578 -0.336 c 4.693 1.059 11.068 -1.546 16.054 -6.559 c 2.826 -2.85 4.944 -6.224 5.983 -9.53 c 2.317 -6.623 7.297 -12.02 13.623 -15.054 c 0.15 -0.072 0.273 -0.147 0.382 -0.223 a 7.815 7.815 0 0 0 4.225 -5.214 c 9.702 11.445 24.253 18.753 40.519 19.136 c 29.833 0.702 52.133 -21.258 53.164 -52.837 c 0.519 -15.892 -5.63 -36.385 -19.641 -53.19 c -10.709 -12.845 -26.41 -23.509 -44.187 -28.209 z" stroke-linecap="round" />
</g>
</g>
</g>
</svg>