<?xml version="1.0" encoding="UTF-8" standalone="no"?>
<svg
   xmlns:dc="http://purl.org/dc/elements/1.1/"
   xmlns:cc="http://creativecommons.org/ns#"
   xmlns:rdf="http://www.w3.org/1999/02/22-rdf-syntax-ns#"
   xmlns:svg="http://www.w3.org/2000/svg"
   xmlns="http://www.w3.org/2000/svg"
   xmlns:sodipodi="http://sodipodi.sourceforge.net/DTD/sodipodi-0.dtd"
   xmlns:inkscape="http://www.inkscape.org/namespaces/inkscape"
   width="945"
   height="630"
   version="1.1"
   id="svg30"
   sodipodi:docname="Flag_of_Zimbabwe_(3-2).svg"
   inkscape:version="1.0.1 (3bc2e813f5, 2020-09-07)">
  <metadata
     id="metadata34">
    <rdf:RDF>
      <cc:Work
         rdf:about="">
        <dc:format>image/svg+xml</dc:format>
        <dc:type
           rdf:resource="http://purl.org/dc/dcmitype/StillImage" />
        <dc:title />
      </cc:Work>
    </rdf:RDF>
  </metadata>
  <sodipodi:namedview
     pagecolor="#ffffff"
     bordercolor="#666666"
     borderopacity="1"
     objecttolerance="10"
     gridtolerance="10"
     guidetolerance="10"
     inkscape:pageopacity="0"
     inkscape:pageshadow="2"
     inkscape:window-width="1920"
     inkscape:window-height="1018"
     id="namedview32"
     showgrid="false"
     inkscape:zoom="0.95000801"
     inkscape:cx="832.62987"
     inkscape:cy="315"
     inkscape:window-x="-8"
     inkscape:window-y="-8"
     inkscape:window-maximized="1"
     inkscape:current-layer="svg30"
     inkscape:document-rotation="0" />
  <defs
     id="defs5">
    <clipPath
       id="a">
      <path
         fill="#00f"
         fill-rule="evenodd"
         d="M0 0h1260v630H0z"
         id="path2" />
    </clipPath>
  </defs>
  <path
     d="M 0,0 H 945 V 630 H 0 Z"
     fill="#006400"
     id="path7"
     style="stroke-width:0;stroke-miterlimit:4;stroke-dasharray:none" />
  <path
     d="M 0,90 H 945 V 540 H 0 Z"
     fill="#ffd200"
     id="path9"
     style="stroke-width:0;stroke-miterlimit:4;stroke-dasharray:none" />
  <path
     d="M 0,180 H 945 V 450 H 0 Z"
     fill="#d40000"
     id="path11"
     style="stroke-width:0;stroke-miterlimit:4;stroke-dasharray:none" />
  <path
     d="m 0,270 h 945 v 90 H 0 Z"
     id="path13"
     style="stroke-width:0;stroke-miterlimit:4;stroke-dasharray:none" />
  <path
     d="M 0,0 V 630 L 420,315 Z"
     clip-path="url(#a)"
     stroke="#000"
     stroke-width="30"
     id="path15" />
  <path
     d="M 0,0 V 630 L 420,315 Z"
     fill="#ffffff"
     id="path17"
     style="stroke-width:0;stroke-miterlimit:4;stroke-dasharray:none" />
  <path
     d="M159.78 156.622l83.19 256.028L25.179 254.416h269.203L76.592 412.65z"
     fill="#d40000"
     id="path19"
     style="stroke-width:0;stroke-miterlimit:4;stroke-dasharray:none" />
  <path
     d="m 152.87609,218.66763 c -2.92813,-3.3533 -7.26299,-5.13388 -11.70314,-4.80568 -4.43975,0.32744 -8.46603,2.72595 -10.8698,6.47271 -2.54941,-0.062 -5.09882,0.12522 -7.61162,0.55713 -2.35058,0.40442 -4.38958,1.85452 -5.5424,3.94293 -1.15401,2.08727 -1.29511,4.58611 -0.38594,6.79034 l 8.58902,-0.50933 c 3.51889,1.98579 5.74011,5.66994 5.85553,9.70867 l 0.96765,34.13051 c -1.65948,3.42798 -2.4977,7.19549 -2.4498,11.0045 0.0588,4.58537 0.4225,9.16093 1.09098,13.69839 0.67037,4.55631 -0.82767,9.16319 -4.04967,12.45347 -4.99393,5.09955 -9.33636,10.79928 -12.92732,16.96716 -2.75687,4.73853 -2.27136,10.69141 1.21701,14.91951 l 9.78637,37.8656 h 73.45035 l 4.0761,-32.12737 c 1.7304,-13.63952 9.50761,-25.77463 21.17757,-33.04292 l 2.89042,0.82051 c 1.94164,0.55038 4.00137,-0.34968 4.91581,-2.14954 0.91407,-1.79981 0.42667,-3.99499 -1.16378,-5.23876 l -69.48181,-54.33203 -1.82621,-22.86797 c -0.42142,-5.27421 -2.52676,-10.27228 -6.00532,-14.25783"
     style="fill:#ffd200;fill-opacity:1;fill-rule:evenodd;stroke:none;stroke-width:0;stroke-miterlimit:4;stroke-dasharray:none"
     id="path636" />
  <path
     d="m 152.17216,219.29008 -0.0578,-0.0653 1.40751,-1.24452 0.0578,0.0653 z m -0.0578,-0.0653 c -0.37952,-0.42967 -0.79335,-0.83826 -1.22866,-1.21811 l 1.23849,-1.41578 c 0.48666,0.42474 0.95589,0.8899 1.39768,1.38937 z m 0.0117,-2.63692 v 0.003 l -0.61904,0.70812 z m -1.23847,1.42221 c -0.43608,-0.37951 -0.89184,-0.72737 -1.35694,-1.0363 l 1.03929,-1.5697 c 0.54772,0.36368 1.06839,0.75934 1.55614,1.18377 z m -1.35694,-1.0363 c -2.41403,-1.60406 -5.32556,-2.38683 -8.28992,-2.16841 l -0.1327,-1.88658 c 3.37402,-0.24895 6.69866,0.64921 9.46156,2.48527 z m -8.2895,-2.16839 -0.0866,0.008 -0.13237,-1.88658 0.0866,-0.008 z m -0.2266,-1.88018 h 0.009 l 0.0662,0.94307 z m 0.14735,1.8866 c -0.60096,0.0471 -1.17282,0.13013 -1.70889,0.24477 l -0.39117,-1.84167 c 0.66096,-0.14105 1.31544,-0.23952 1.95258,-0.28968 z m -1.70889,0.24477 c -0.55906,0.11849 -1.10982,0.27579 -1.6444,0.46516 l -0.62653,-1.7753 c 0.61037,-0.21579 1.24036,-0.39458 1.87979,-0.53157 z m -1.6444,0.46516 c -2.73425,0.96765 -5.10934,2.82516 -6.71149,5.32099 l -1.5844,-1.01588 c 1.82963,-2.85194 4.5435,-4.97468 7.66932,-6.08038 z m -6.71149,5.32099 -0.81484,0.43533 0.0224,-0.94348 z m -0.81484,0.43533 c -0.092,-0.002 -0.18703,-0.004 -0.25204,-0.004 l 0.0224,-1.88621 c 0.11121,9.9e-4 0.1958,0.004 0.27611,0.004 l -0.0449,1.88658 z m -0.25204,-0.004 h -0.003 l 0.0139,-0.94306 z m -0.003,0 c -0.34625,-0.004 -0.69486,-0.008 -1.03705,-0.004 l -0.0139,-1.88621 c 0.36144,-0.003 0.72619,-0.002 1.08232,0.004 z m -1.03705,-0.004 c -0.32744,0.002 -0.67604,0.0118 -1.03331,0.0224 l -0.0662,-1.8862 c 0.34624,-0.0117 0.70887,-0.0225 1.08418,-0.0225 z m -1.03331,0.0224 c -1.71835,0.061 -3.42726,0.23954 -5.1037,0.52741 l -0.31685,-1.8564 c 1.77944,-0.30595 3.57059,-0.49308 5.35455,-0.55723 z m -5.1037,0.52741 -0.0374,0.008 -0.31654,-1.8564 0.0374,-0.008 0.31685,1.8564 z m -0.35845,-1.84999 h 0.003 l 0.15848,0.92798 -0.16264,-0.92798 z m 0.32519,1.8564 c -0.29535,0.0513 -0.58098,0.12192 -0.8514,0.20521 l -0.55148,-1.79869 c 0.35685,-0.11014 0.71946,-0.19997 1.07778,-0.26295 z m -0.8514,0.20521 c -0.26628,0.0823 -0.53789,0.18821 -0.80619,0.30893 l -0.7741,-1.71719 c 0.32476,-0.14672 0.66814,-0.2792 1.02871,-0.39043 z m -1.58365,-1.40824 h 0.003 l 0.387,0.85858 z m 0.78051,1.7172 c -1.3377,0.60845 -2.46454,1.6361 -3.1877,2.94739 l -1.65082,-0.90691 c 0.92274,-1.67457 2.35665,-2.98474 4.058,-3.7577 z m -4.84191,2.04804 0.003,-0.008 0.82542,0.4534 z m 1.6576,0.89184 -0.0513,0.0952 -1.65761,-0.89183 0.0513,-0.0952 z m -1.70889,-0.7926 v -0.004 l 0.82873,0.44592 -0.82873,-0.44174 z m 1.6576,0.88349 c -0.13046,0.24478 -0.25238,0.51114 -0.35951,0.79335 l -1.75985,-0.67145 c 0.12363,-0.32743 0.28092,-0.66619 0.46176,-1.00539 z m -2.11936,0.12596 v -0.004 l 0.87976,0.33577 -0.87976,-0.33161 z m 1.75985,0.66321 c -0.10268,0.27236 -0.19014,0.5504 -0.2589,0.82767 l -1.8262,-0.44934 c 0.0866,-0.35277 0.19665,-0.70244 0.32519,-1.04154 z m -2.08502,0.38176 v -0.003 l 0.91333,0.22447 z m 1.82621,0.4425 c -0.34518,1.40937 -0.24017,2.91191 0.32411,4.28281 l -1.73872,0.71411 c -0.71752,-1.74172 -0.84991,-3.64831 -0.41159,-5.43945 z m -0.48966,5.58317 -0.92497,-0.58623 0.86959,-0.35683 z m -0.1112,-1.88621 8.58904,-0.50934 0.11122,1.88659 -8.58902,0.5089 z m 8.58904,-0.50934 0.51232,0.12191 -0.45639,0.82126 z m 0.51232,0.12191 c 0.12822,0.0717 0.18415,0.10373 0.21698,0.12298 l -0.96005,1.62099 c -0.0952,-0.0556 -0.17228,-0.10155 -0.17228,-0.10155 l 0.91333,-1.6425 z m 0.21698,0.12298 c 0.51874,0.30593 1.01513,0.65144 1.48105,1.02689 l -1.17811,1.46709 c -0.39278,-0.31653 -0.81485,-0.60963 -1.26075,-0.8726 z m 1.48105,1.02689 c 0.46443,0.37427 0.90274,0.78169 1.30489,1.21585 l -1.37732,1.2811 c -0.34026,-0.367 -0.71111,-0.71218 -1.10568,-1.02989 z m 1.30489,1.21585 c 2.03596,2.18649 3.25179,5.07087 3.33932,8.13859 l -1.88619,0.0513 c -0.0738,-2.60824 -1.10456,-5.05578 -2.83045,-6.90878 z m 3.33932,8.13859 0.96797,34.13014 -1.8866,0.0513 -0.96765,-34.13051 z m 0.96797,34.13014 -0.0963,0.43417 -0.84736,-0.40819 0.94348,-0.0256 z m -0.0963,0.43417 c -0.0546,0.11345 -0.13154,0.27728 -0.20853,0.44516 l -1.70891,-0.78917 c 0.062,-0.13581 0.13154,-0.2837 0.22329,-0.47267 z m -1.91755,-0.33996 v -0.003 l 0.8544,0.39459 -0.8544,-0.39043 z m 1.70889,0.78052 c -0.20734,0.45234 -0.40442,0.92305 -0.58813,1.39995 l -1.7538,-0.67787 c 0.1913,-0.49724 0.40324,-1.00122 0.63295,-1.50256 z m -2.34528,0.72501 0.003,-0.003 0.87675,0.33877 z m 1.7602,0.67155 c -0.18083,0.47159 -0.34625,0.94947 -0.49607,1.42861 l -1.79867,-0.56023 c 0.16158,-0.51639 0.33984,-1.03182 0.53457,-1.53991 z m -0.49607,1.42861 c -0.73367,2.35702 -1.09513,4.82942 -1.06421,7.31998 l -1.88621,0.0224 c -0.0343,-2.68182 0.35727,-5.35078 1.15173,-7.90132 l 1.79867,0.56023 z m -1.06421,7.31998 c 9.9e-4,0.15933 0.003,0.32177 0.009,0.49607 l -1.88619,0.03 c -0.002,-0.1573 -0.003,-0.33234 -0.009,-0.50473 l 1.88622,-0.0224 z m 0.009,0.49607 c 0.0117,0.61155 0.0256,1.24339 0.0513,1.88621 l -1.88621,0.0662 c -0.0225,-0.62247 -0.0407,-1.26604 -0.0513,-1.9228 l 1.88618,-0.03 z m 0.0513,1.88621 c 0.0203,0.60097 0.0502,1.23095 0.0866,1.88546 l -1.88619,0.10267 c -0.0343,-0.61188 -0.0631,-1.25434 -0.0866,-1.92166 z m 0.0866,1.88546 c 0.1712,3.12884 0.48323,6.23502 0.93439,9.30539 l -1.86471,0.27161 c -0.46399,-3.15788 -0.78393,-6.32104 -0.95588,-9.47439 z m 0.93439,9.30539 0.009,0.0438 -1.8647,0.27161 -0.009,-0.0438 z m 0.009,0.0438 v 0.003 l -0.93215,0.1327 z m 0,0.003 c 0.0983,0.68244 0.15195,1.36373 0.16072,2.03294 l -1.88657,0.0225 c -0.009,-0.59905 -0.0546,-1.19887 -0.13892,-1.78925 l 1.86471,-0.26509 z m 0.16072,2.03294 c 0.009,0.6662 -0.0257,1.34109 -0.1048,2.01145 l -1.8715,-0.21388 c 0.0662,-0.57831 0.0972,-1.17509 0.0898,-1.77604 l 1.88659,-0.0224 z m -0.1048,2.01145 c -0.398,3.41326 -1.91411,6.64586 -4.37375,9.1579 l -1.34069,-1.3196 c 2.16084,-2.20722 3.49323,-5.04935 3.84294,-8.05221 z m -4.37375,9.1579 -0.003,0.009 -0.66737,-0.66737 z m -0.003,0.009 c -0.0256,0.0256 0.15934,-0.21077 0.10898,-0.13464 l -1.5697,-1.04602 c 0.0545,-0.0823 0.092,-0.11966 0.12585,-0.15388 z m 0.10898,-0.13464 -0.11454,0.13667 -0.67036,-0.65979 z m -0.11454,0.13667 c -0.64663,0.66096 -1.32563,1.38071 -2.03256,2.15368 l -1.39242,-1.27432 c 0.63828,-0.69872 1.33357,-1.43204 2.08425,-2.19895 z m -3.42498,0.88231 v -0.003 l 0.69604,0.63712 z m 1.39242,1.2683 c -0.68129,0.74619 -1.33771,1.48972 -1.96241,2.22194 l -1.42894,-1.22317 c 0.66844,-0.78351 1.33655,-1.54177 1.99862,-2.26684 z m -3.39517,0.99857 h 0.003 l 0.71442,0.61187 -0.71859,-0.61187 z m 1.43727,1.22339 c -3.2937,3.87013 -6.23656,8.02015 -8.78482,12.39688 l -1.62742,-0.94306 c 2.61768,-4.49633 5.62353,-8.73952 8.97497,-12.67719 z m -10.41676,11.4538 h 0.003 l 0.81366,0.47157 -0.81827,-0.47157 z m 1.6361,0.94305 -0.0374,0.0631 -1.63611,-0.94349 0.0374,-0.0631 z m -0.0374,0.0631 c -0.36027,0.62663 -0.65679,1.26603 -0.88884,1.90318 l -1.76849,-0.64171 c 0.27814,-0.76544 0.61904,-1.50557 1.02122,-2.20497 z m -0.88884,1.90318 c -0.2374,0.65454 -0.418,1.32413 -0.53755,1.99221 l -1.85047,-0.33107 c 0.14009,-0.78159 0.34743,-1.55346 0.61904,-2.3023 z m -0.53755,1.99221 c -0.6213,3.44989 0.26819,7.08232 2.58751,9.89279 l -1.452,1.19319 c -2.67588,-3.24184 -3.70274,-7.43564 -2.98598,-11.41704 z m 2.58751,9.89279 0.18414,0.36027 -0.90991,0.23621 z m 0.18414,0.36027 9.78678,37.86555 -1.82018,0.47265 -9.78677,-37.86556 z m 8.8765,39.04481 -0.9099,-0.70651 0.9099,-0.23655 z m 0,-1.88619 h 73.44977 v 1.88619 h -73.45358 z m 74.38252,1.0608 -0.93215,0.82542 v -0.94306 z m -1.86471,-0.23537 4.07609,-32.12736 1.8651,0.23536 -4.07648,32.12736 z m 5.94457,-31.89536 -0.003,0.003 -0.93258,-0.11773 z m -1.87194,-0.22809 c 0.0139,-0.11463 -0.0256,0.2297 0.0117,-0.0578 l 1.86508,0.2436 c -0.0343,0.25546 0.0139,-0.10588 -0.003,0.0428 l -1.87148,-0.22862 z m 1.87451,0.1819 v 0.003 l -0.93257,-0.12191 0.93257,0.11775 z m -1.86509,-0.23537 c 0.25044,-1.96126 0.62129,-3.88067 1.10156,-5.74122 l 1.82661,0.46398 c -0.46858,1.81454 -0.82651,3.6581 -1.06304,5.51264 z m 1.10156,-5.74122 c 0.48548,-1.88206 1.08646,-3.72377 1.79338,-5.50923 l 1.75381,0.69261 c -0.6802,1.72059 -1.25771,3.48531 -1.72058,5.28061 z m 1.79338,-5.50923 c 3.63776,-9.19112 10.14817,-17.09055 18.71119,-22.42438 l 0.9948,1.5999 c -8.21481,5.11688 -14.46078,12.69718 -17.95215,21.51709 z m 18.71119,-22.42438 0.75185,-0.10692 -0.25439,0.90648 z m 0.75185,-0.10692 2.89043,0.82008 -0.50891,1.81339 -2.89041,-0.82018 z m 2.89043,0.82008 h 0.003 l -0.25772,0.90691 z m 0.003,0 0.0224,0.009 -0.51532,1.81343 -0.0224,-0.009 z m -0.4855,1.81981 h -0.009 l 0.25772,-0.90649 z m 0.50025,-1.81342 c 0.19462,0.0534 0.40966,0.0898 0.63755,0.10586 l -0.13923,1.88659 c -0.31536,-0.0224 -0.6522,-0.0834 -0.99857,-0.17879 z m 0.63755,0.10586 c 0.22327,0.0139 0.43607,0.0118 0.63081,-0.0117 l 0.22038,1.87147 c -0.33577,0.0396 -0.66919,0.0492 -0.9902,0.0256 z m 0.63081,-0.0117 c 1.06078,-0.12587 2.02763,-0.76887 2.53429,-1.76776 l 1.68137,0.84693 c -0.80127,1.57837 -2.32496,2.5924 -3.99538,2.79231 z m 4.21865,-0.92392 -0.003,0.003 -0.84049,-0.42325 z m -1.68739,-0.84051 0.0117,-0.0224 1.68741,0.84052 -0.0118,0.0224 z m 0.0117,-0.0224 c 0.10052,-0.20231 0.17965,-0.40666 0.2343,-0.60545 l 1.81378,0.50056 c -0.0898,0.32592 -0.21077,0.64588 -0.36069,0.94529 z m 2.05108,-0.10832 -0.003,0.003 -0.90691,-0.25034 z m -1.8202,-0.49383 c 0.0524,-0.1958 0.0888,-0.40559 0.10479,-0.62245 l 1.88658,0.1389 c -0.0225,0.31877 -0.0823,0.64814 -0.17121,0.97749 z m 1.99146,-0.48665 v 0.003 l -0.94349,-0.0695 z m -1.88658,-0.1327 c 0.0791,-1.07023 -0.36551,-2.14387 -1.24567,-2.83271 l 1.15702,-1.48179 c 1.39352,1.08948 2.09822,2.77499 1.97523,4.4473 z m -1.24567,-2.83271 -69.48174,-54.33215 1.15699,-1.48218 69.48177,54.33254 z m -69.48174,-54.33215 -0.36487,-0.66737 0.94316,-0.0738 z m -0.36487,-0.66737 -1.8262,-22.86797 1.88619,-0.14746 1.82659,22.86798 z m -1.8262,-22.86797 -0.009,-0.0802 1.88621,-0.14789 0.009,0.0802 z m 1.8798,-0.23087 v 0.003 l -0.94317,0.0738 z m -1.88622,0.15387 c -0.061,-0.74201 -0.15078,-1.44784 -0.26627,-2.11066 l 1.85641,-0.31684 c 0.13581,0.78201 0.23622,1.54442 0.2961,2.27363 z m -0.26627,-2.11066 c -0.11998,-0.69111 -0.27385,-1.3807 -0.4565,-2.06313 l 1.81981,-0.48516 c 0.19687,0.73037 0.36144,1.47652 0.49308,2.23138 z m -0.4565,-2.06313 c -0.93257,-3.48044 -2.65123,-6.72283 -5.04106,-9.46122 l 1.41578,-1.23849 c 2.58259,2.95983 4.43899,6.45988 5.44509,10.21456"
     style="fill:#000000;fill-opacity:1;fill-rule:nonzero;stroke:none;stroke-width:0;stroke-miterlimit:4;stroke-dasharray:none"
     id="path638" />
  <path
     d="m 152.68787,280.72076 c -0.009,0.0203 0.0139,-0.0395 -0.0117,0.0374 l -1.8051,-0.54548 c 0.009,-0.0257 0.0139,-0.0417 0.0395,-0.10982 l 1.7753,0.61786 z m -0.0117,0.0374 -0.009,0.0224 -0.89483,-0.29536 z m -0.009,0.0224 c -0.16886,0.50772 -0.30551,1.01139 -0.40849,1.50333 l -1.84131,-0.38294 c 0.12308,-0.58813 0.27695,-1.16001 0.45992,-1.71076 z m -0.40849,1.50333 c -0.10694,0.51114 -0.18478,1.02347 -0.23205,1.52593 l -1.8711,-0.16897 c 0.0546,-0.58814 0.14339,-1.17097 0.26166,-1.73986 z m -0.23205,1.52593 c -0.24584,2.61351 0.26733,5.26967 1.51124,7.63423 l -1.66629,0.87665 c -1.41309,-2.68666 -1.99481,-5.70645 -1.71563,-8.6795 z m 1.51124,7.63423 0.0118,0.0203 -1.6659,0.87676 -0.0117,-0.0203 1.66625,-0.87665 z m 0.0118,0.0203 c 0.2436,0.46293 0.51457,0.90991 0.80618,1.33543 l -1.55368,1.05995 c -0.33267,-0.4855 -0.64053,-0.99439 -0.91739,-1.51955 z m 0.80618,1.33543 c 0.29429,0.4301 0.61188,0.84169 0.94349,1.22567 l -1.42258,1.22944 c -0.38475,-0.4459 -0.74736,-0.91407 -1.07553,-1.39428 z m 0.94349,1.22567 c 1.72588,1.99523 4.01309,3.4676 6.59641,4.19908 l -0.5089,1.81375 c -2.93835,-0.83217 -5.54245,-2.50862 -7.51012,-4.78339"
     style="fill:#000000;fill-opacity:1;fill-rule:nonzero;stroke:none;stroke-width:0;stroke-miterlimit:4;stroke-dasharray:none"
     id="path870" />
  <path
     d="m 161.23804,256.57055 -28.52246,19.49093 -1.06079,-1.55463 28.52282,-19.49091"
     style="fill:#000000;fill-opacity:1;fill-rule:nonzero;stroke:none;stroke-width:0;stroke-miterlimit:4;stroke-dasharray:none"
     id="path872" />
  <path
     d="m 145.54443,225.65715 c 0,-2.06727 -1.67572,-3.74299 -3.74261,-3.74299 -2.06689,0 -3.74261,1.67572 -3.74261,3.74299 0,2.06691 1.67572,3.74261 3.74261,3.74261 2.06689,0 3.74261,-1.6757 3.74261,-3.74261"
     style="fill:#ffd200;fill-opacity:1;fill-rule:evenodd;stroke:none;stroke-width:0;stroke-miterlimit:4;stroke-dasharray:none"
     id="path874" />
  <path
     d="m 144.60132,225.65715 v -0.008 h 1.88619 v 0.008 z m 0,-0.008 c -9.7e-4,-0.77112 -0.31426,-1.47163 -0.81783,-1.97412 l 1.32602,-1.33468 c 0.84874,0.8481 1.37618,2.019 1.37804,3.3088 z m -0.81783,-1.97412 c -0.5028,-0.50174 -1.20111,-0.81591 -1.96883,-0.81826 l 0.009,-1.88621 c 1.2811,0.004 2.44453,0.52816 3.28842,1.36976 l -1.32604,1.33471 z m -1.96583,-2.70444 h 0.003 l -0.003,0.94306 z m 0,1.88621 h -0.0139 v -1.88621 h 0.0139 z m -0.0139,0 h -0.009 v -1.88621 h 0.009 z m -0.009,0 c -0.77111,9.8e-4 -1.47125,0.31461 -1.9741,0.81827 l -1.33431,-1.32601 c 0.84799,-0.84916 2.019,-1.37616 3.30841,-1.37843 z m -1.9741,0.81827 c -0.5013,0.50248 -0.81559,1.20076 -0.81783,1.96881 l -1.88622,-0.008 c 0.003,-1.28187 0.52815,-2.44529 1.36978,-3.28805 l 1.3343,1.32602 z m -2.70408,1.96542 v -0.003 l 0.94317,0.003 z m 1.88622,0 v 0.0149 h -1.88622 v -0.0149 z m 0,0.0149 v 0.008 h -1.88622 v -0.008 z m 0,0.008 c 9.8e-4,0.77217 0.31428,1.47162 0.81783,1.97411 l -1.32602,1.33468 c -0.84884,-0.8481 -1.37617,-2.02013 -1.37806,-3.30879 z m 0.81783,1.97411 c 0.50281,0.50173 1.20114,0.81602 1.96881,0.81826 l -0.009,1.8862 c -1.28225,-0.004 -2.44566,-0.52814 -3.28842,-1.36975 l 1.32698,-1.33458 z m 1.96541,2.70444 h -0.003 l 0.003,-0.94306 z m 0,-1.88621 h 0.0139 v 1.88621 h -0.0139 z m 0.0139,0 h 0.009 v 1.88621 h -0.009 z m 0.009,0 c 0.77186,-9.9e-4 1.47124,-0.3146 1.97412,-0.81826 l 1.33434,1.32602 c -0.8481,0.84917 -2.01976,1.37618 -3.30842,1.37845 z m 1.97412,-0.81826 c 0.50131,-0.50249 0.81559,-1.20077 0.81783,-1.96845 l 1.88622,0.008 c -0.003,1.28073 -0.52814,2.44453 -1.36976,3.28803 l -1.33429,-1.32601 z m 2.70406,-1.96543 v 0.003 l -0.94306,-0.003 z m -1.88622,0 v -0.0149 h 1.88622 v 0.0149"
     style="fill:#000000;fill-opacity:1;fill-rule:nonzero;stroke:none;stroke-width:0;stroke-miterlimit:4;stroke-dasharray:none"
     id="path876" />
  <path
     d="m 137.9747,314.9984 0.0662,-0.0343 0.84051,1.68741 -0.0662,0.0342 -0.8405,-1.68776 z m 0.90991,1.65119 -0.003,0.003 -0.42026,-0.84392 z m -0.84692,-1.68099 c 0.77217,-0.39041 1.50142,-0.83932 2.17518,-1.33881 l 1.1204,1.51009 c -0.76545,0.56664 -1.58556,1.07363 -2.44869,1.50971 z m 2.17518,-1.33881 c 0.6756,-0.50026 1.3075,-1.05738 1.88508,-1.65837 l 1.35579,1.3045 c -0.64587,0.67145 -1.35579,1.29809 -2.12047,1.86396 z m 1.88508,-1.65837 c 2.95266,-3.07036 4.52536,-7.3294 4.14171,-11.74351 l 1.8862,-0.16263 c 0.43192,4.95731 -1.34186,9.74789 -4.67212,13.21059"
     style="fill:#000000;fill-opacity:1;fill-rule:nonzero;stroke:none;stroke-width:0;stroke-miterlimit:4;stroke-dasharray:none"
     id="path878" />
  <path
     d="m 150.91671,295.08649 -0.0662,0.0343 -0.8405,-1.68739 0.0663,-0.0343 0.84049,1.68778 z m -0.91408,-1.65119 0.009,-0.003 0.42025,0.84393 z m 0.85559,1.68098 c -0.26852,0.13806 -0.51457,0.28969 -0.72961,0.45116 l -1.12683,-1.50331 c 0.32176,-0.24188 0.65753,-0.45341 1.00079,-0.62889 z m -0.72961,0.45116 c -0.22435,0.16778 -0.43726,0.35834 -0.63081,0.5613 l -1.36221,-1.29581 c 0.26167,-0.27505 0.55381,-0.535 0.86618,-0.76888 z m -0.63081,0.5613 c -0.97963,1.02871 -1.50026,2.45657 -1.37202,3.93651 l -1.88621,0.16264 c -0.17548,-2.019 0.5444,-3.97501 1.89602,-5.39492"
     style="fill:#000000;fill-opacity:1;fill-rule:nonzero;stroke:none;stroke-width:0;stroke-miterlimit:4;stroke-dasharray:none"
     id="path880" />
  <path
     d="m 161.50775,322.76429 -0.0139,0.009 -0.69935,-1.74738 0.0139,-0.009 z m -0.0139,0.009 c -0.97182,0.39117 -1.98129,0.805 -3.01342,1.23282 l -0.72374,-1.73963 c 0.97857,-0.40516 1.99107,-0.82018 3.03679,-1.24151 z m -3.01342,1.23282 c -1.00603,0.41726 -2.00916,0.84051 -3.00472,1.26491 l -0.73785,-1.73231 c 1.00604,-0.42967 2.0156,-0.85527 3.01983,-1.27129 z m -3.00472,1.26491 c -5.12558,2.18685 -10.20362,4.51291 -15.22544,6.97328 l -0.82639,-1.69473 c 5.03352,-2.46603 10.14062,-4.8057 15.31296,-7.01179"
     style="fill:#000000;fill-opacity:1;fill-rule:nonzero;stroke:none;stroke-width:0;stroke-miterlimit:4;stroke-dasharray:none"
     id="path882" />
  <path
     d="m 160.81893,321.01352 0.0343,-0.0117 0.67786,1.75381 -0.0343,0.0118 z m 0.72618,1.73795 -0.0139,0.003 -0.33877,-0.87665 z m -0.70799,-1.74738 c 1.07287,-0.43415 2.0982,-0.93781 3.06582,-1.50142 l 0.94348,1.62741 c -1.06004,0.61712 -2.16459,1.16039 -3.30122,1.62139 z m 3.06582,-1.50142 c 0.95707,-0.55607 1.88772,-1.19248 2.78026,-1.89714 l 1.17209,1.48217 c -0.93256,0.7356 -1.93864,1.4203 -3.00888,2.04238 z m 2.78019,-1.89714 c 4.51294,-3.56193 7.65989,-8.68297 8.72068,-14.47665 l 1.85001,0.33804 c -1.14531,6.25879 -4.53709,11.78385 -9.3986,15.62078"
     style="fill:#000000;fill-opacity:1;fill-rule:nonzero;stroke:none;stroke-width:0;stroke-miterlimit:4;stroke-dasharray:none"
     id="path884" />
  <path
     d="m 151.54256,325.00434 h 61.29377 v 1.88657 h -61.29377"
     style="fill:#000000;fill-opacity:1;fill-rule:nonzero;stroke:none;stroke-width:0;stroke-miterlimit:4;stroke-dasharray:none"
     id="path886" />
  <path
     d="m 165.66949,337.44199 c 0,-3.92556 -3.1824,-7.10797 -7.10686,-7.10797 -3.92557,0 -7.10685,3.18241 -7.10685,7.10797 0,3.92444 3.18128,7.10685 7.10685,7.10685 3.92446,0 7.10686,-3.18241 7.10686,-7.10685"
     style="fill:#ffd200;fill-opacity:1;fill-rule:evenodd;stroke:none;stroke-width:0;stroke-miterlimit:4;stroke-dasharray:none"
     id="path888" />
  <path
     d="m 164.72637,337.44199 v -0.009 h 1.88622 v 0.009 z m 0,-0.009 c -9.9e-4,-1.69798 -0.69411,-3.24013 -1.8081,-4.35413 l 1.33431,-1.33468 c 1.45426,1.45426 2.35811,3.46797 2.36001,5.68881 z m -0.478,-5.68881 h 0.003 l -0.66695,0.66738 0.66277,-0.66738 z m -1.326,1.33468 c -1.11204,-1.11023 -2.64857,-1.79982 -4.34353,-1.80321 v -1.88622 c 2.21254,0.003 4.21758,0.90466 5.66958,2.35475 z m -4.34353,-1.80321 h -0.0139 v -1.88622 h 0.0139 z m -0.0139,0 h -0.009 v -1.88622 h 0.009 z m -0.009,0 c -1.70135,9.8e-4 -3.242,0.69068 -4.35299,1.80396 l -1.33467,-1.32601 c 1.45654,-1.4584 3.46987,-2.36191 5.68766,-2.36417 z m -4.35299,1.80396 c -1.11021,1.11212 -1.7998,2.64899 -1.8032,4.34506 h -1.88621 c 0.003,-2.21365 0.90467,-4.21867 2.35474,-5.67107 z m -1.8032,4.34506 v 0.0139 h -1.88621 v -0.0139 z m 0,0.0139 v 0.009 h -1.88621 v -0.009 z m 0,0.009 c 9.9e-4,1.70023 0.69187,3.24238 1.80398,4.35337 l -1.32602,1.3343 c -1.45865,-1.45705 -2.36214,-3.47075 -2.3644,-5.68743 z m 1.80398,4.35337 c 1.11134,1.10984 2.64896,1.79943 4.34392,1.80284 v 1.8862 c -2.21252,-0.003 -4.2187,-0.90466 -5.66994,-2.35474 z m 4.34392,1.80284 h 0.0139 v 1.8862 h -0.0139 z m 0.0139,0 h 0.009 v 1.8862 h -0.009 z m 0.009,0 c 1.69723,-9.8e-4 3.239,-0.69412 4.35338,-1.80814 l 1.33468,1.33431 c -1.45464,1.45426 -3.46797,2.35814 -5.68806,2.36003 z m 5.68806,-0.478 v 0.003 l -0.66738,-0.66737 0.66738,0.66321 z m -1.33468,-1.32603 c 1.10982,-1.11212 1.79982,-2.64898 1.80283,-4.34354 h 1.88619 c -0.003,2.21215 -0.90466,4.21717 -2.35434,5.66957 z m 1.80283,-4.34354 v -0.0139 h 1.88619 v 0.0139"
     style="fill:#000000;fill-opacity:1;fill-rule:nonzero;stroke:none;stroke-width:0;stroke-miterlimit:4;stroke-dasharray:none"
     id="path890" />
  <path
     d="m 193.94634,337.44199 c 0,-3.92556 -3.18241,-7.10797 -7.10683,-7.10797 -3.92558,0 -7.10798,3.18241 -7.10798,7.10797 0,3.92444 3.1824,7.10685 7.10798,7.10685 3.92442,0 7.10683,-3.18241 7.10683,-7.10685"
     style="fill:#ffd200;fill-opacity:1;fill-rule:evenodd;stroke:none;stroke-width:0;stroke-miterlimit:4;stroke-dasharray:none"
     id="path892" />
  <path
     d="m 193.00324,337.44199 v -0.009 h 1.88622 v 0.009 z m 0,-0.009 c -9.9e-4,-1.69798 -0.69412,-3.24013 -1.8085,-4.35413 l 1.33468,-1.33468 c 1.45426,1.45426 2.35777,3.46797 2.36004,5.68881 z m -0.478,-5.68881 h 0.003 l -0.66738,0.66738 0.66321,-0.66738 z m -1.326,1.33468 c -1.11213,-1.11023 -2.649,-1.79982 -4.34393,-1.80321 v -1.88622 c 2.21251,0.003 4.21754,0.90466 5.66993,2.35475 z m -4.34393,-1.80321 h -0.0139 v -1.88622 h 0.0139 z m -0.0139,0 h -0.009 v -1.88622 h 0.009 z m -0.009,0 c -1.70138,9.8e-4 -3.24354,0.69187 -4.35451,1.80396 l -1.33429,-1.32601 c 1.45728,-1.4584 3.46986,-2.36191 5.6888,-2.36417 z m -4.35451,1.80396 c -1.10985,1.11212 -1.79981,2.64899 -1.80283,4.34506 h -1.88621 c 0.003,-2.21365 0.90466,-4.21867 2.35475,-5.67107 z m -1.80283,4.34506 v 0.0139 h -1.88621 v -0.0139 z m 0,0.0139 v 0.009 h -1.88621 v -0.009 z m 0,0.009 c 9.9e-4,1.70023 0.69187,3.24238 1.80396,4.35337 l -1.32601,1.3343 c -1.45859,-1.45705 -2.36248,-3.47075 -2.36438,-5.68743 z m 1.80396,4.35337 c 1.11212,1.10984 2.6486,1.79943 4.34469,1.80284 v 1.8862 c -2.21366,-0.003 -4.21829,-0.90466 -5.6707,-2.35474 z m 4.34469,1.80284 h 0.0139 v 1.8862 h -0.0139 z m 0.0139,0 h 0.009 v 1.8862 h -0.009 z m 0.009,0 c 1.69681,-9.8e-4 3.23899,-0.69412 4.35297,-1.80814 l 1.3347,1.33431 c -1.45426,1.45426 -3.46799,2.35814 -5.68767,2.36003 z m 5.68767,-0.478 v 0.003 l -0.66739,-0.66737 0.66739,0.66321 z m -1.33466,-1.32574 c 1.11022,-1.11211 1.79984,-2.64899 1.80324,-4.34355 h 1.88618 c -0.003,2.21216 -0.90467,4.21717 -2.35472,5.66958 z m 1.80324,-4.34355 v -0.0139 h 1.88618 v 0.0139"
     style="fill:#000000;fill-opacity:1;fill-rule:nonzero;stroke:none;stroke-width:0;stroke-miterlimit:4;stroke-dasharray:none"
     id="path894" />
  <path
     d="m 172.40852,312.32111 c 0.33267,0.0995 0.66502,0.19356 0.99438,0.2821 l -0.48549,1.81981 c -0.35043,-0.0941 -0.70351,-0.1944 -1.04763,-0.29728 z m 0.99438,0.2821 c 0.52323,0.14008 1.02678,0.26626 1.50595,0.37416 l -0.41308,1.83493 c -0.54965,-0.12416 -1.0778,-0.25441 -1.57839,-0.38935 z m 1.50595,0.37416 c 0.50667,0.11314 1.01363,0.21815 1.51838,0.31119 l -0.33802,1.84999 c -0.53457,-0.0983 -1.06838,-0.20852 -1.59347,-0.32625 z m 1.51838,0.31119 c 2.36417,0.43424 4.78193,0.64696 7.21174,0.63304 l 0.009,1.88619 c -2.52486,0.0139 -5.0569,-0.21045 -7.5561,-0.66919"
     style="fill:#000000;fill-opacity:1;fill-rule:nonzero;stroke:none;stroke-width:0;stroke-miterlimit:4;stroke-dasharray:none"
     id="path896" />
  <path
     d="m 183.639,313.92177 c 0.33342,-9.9e-4 0.65337,-0.0203 0.94723,-0.0481 l 0.19237,1.8715 c -0.39117,0.0396 -0.77068,0.061 -1.13326,0.0631 l -0.009,-1.88618 z m 0.94723,-0.0481 h 0.003 l 0.092,0.93588 -0.0963,-0.93588 z m 0.003,0 c 0.53158,-0.0524 1.06079,-0.15057 1.57762,-0.28638 l 0.47875,1.81982 c -0.60396,0.15954 -1.23168,0.27385 -1.87222,0.33801 z m 1.57762,-0.28638 c 0.50773,-0.13377 1.01022,-0.31117 1.49388,-0.52398 l 0.75902,1.72362 c -0.56664,0.25035 -1.16228,0.45875 -1.77418,0.62023 z m 1.49388,-0.52398 c 2.27965,-1.00528 4.16057,-2.83798 5.198,-5.20668 l 1.72361,0.75069 c -1.23168,2.81346 -3.46156,4.98824 -6.16259,6.17958"
     style="fill:#000000;fill-opacity:1;fill-rule:nonzero;stroke:none;stroke-width:0;stroke-miterlimit:4;stroke-dasharray:none"
     id="path898" />
  <path
     d="m 223.29231,317.60024 -61.90339,-17.56172 0.50891,-1.81376 61.90337,17.56209"
     style="fill:#000000;fill-opacity:1;fill-rule:nonzero;stroke:none;stroke-width:0;stroke-miterlimit:4;stroke-dasharray:none"
     id="path900" />
  <path
     d="m 116.30219,347.87573 h 86.19358 v 1.88619 h -86.19358"
     style="fill:#000000;fill-opacity:1;fill-rule:nonzero;stroke:none;stroke-width:0;stroke-miterlimit:4;stroke-dasharray:none"
     id="path902" />
  <path
     d="m 136.19942,366.60839 h 63.90954 v 1.88621 h -63.90954"
     style="fill:#000000;fill-opacity:1;fill-rule:nonzero;stroke:none;stroke-width:0;stroke-miterlimit:4;stroke-dasharray:none"
     id="path904" />
  <path
     d="m 166.07672,360.20362 -6.97388,6.88046 -1.31958,-1.3407 6.97386,-6.88085"
     style="fill:#000000;fill-opacity:1;fill-rule:nonzero;stroke:none;stroke-width:0;stroke-miterlimit:4;stroke-dasharray:none"
     id="path906"
     sodipodi:nodetypes="cccc" />
  <path
     d="m 152.78708,359.53248 6.97463,6.88167 -1.3196,1.34071 -6.97461,-6.88129"
     style="fill:#000000;fill-opacity:1;fill-rule:nonzero;stroke:none;stroke-width:0;stroke-miterlimit:4;stroke-dasharray:none"
     id="path908"
     sodipodi:nodetypes="cccc" />
  <path
     d="m 153.44669,360.20362 -6.97502,6.88046 -1.31958,-1.3407 6.975,-6.88085"
     style="fill:#000000;fill-opacity:1;fill-rule:nonzero;stroke:none;stroke-width:0;stroke-miterlimit:4;stroke-dasharray:none"
     id="path910"
     sodipodi:nodetypes="cccc" />
  <path
     d="m 140.15593,359.53248 6.97575,6.88167 -1.3196,1.34071 -6.97574,-6.88129"
     style="fill:#000000;fill-opacity:1;fill-rule:nonzero;stroke:none;stroke-width:0;stroke-miterlimit:4;stroke-dasharray:none"
     id="path912"
     sodipodi:nodetypes="cccc" />
  <path
     d="m 178.70675,360.20362 -6.97388,6.88046 -1.31958,-1.3407 6.97386,-6.88085"
     style="fill:#000000;fill-opacity:1;fill-rule:nonzero;stroke:none;stroke-width:0;stroke-miterlimit:4;stroke-dasharray:none"
     id="path914"
     sodipodi:nodetypes="cccc" />
  <path
     d="m 165.41712,359.53248 6.97462,6.2109 -1.3196,1.3407 -6.97461,-6.21051"
     style="fill:#000000;fill-opacity:1;fill-rule:nonzero;stroke:none;stroke-width:0;stroke-miterlimit:4;stroke-dasharray:none"
     id="path916"
     sodipodi:nodetypes="cccc" />
  <path
     d="m 191.33961,360.20362 -6.97558,6.88046 -1.31958,-1.3407 6.97557,-6.88085"
     style="fill:#000000;fill-opacity:1;fill-rule:nonzero;stroke:none;stroke-width:0;stroke-miterlimit:4;stroke-dasharray:none"
     id="path918"
     sodipodi:nodetypes="cccc" />
  <path
     d="m 178.04827,359.53248 6.97632,6.2109 -1.31959,1.3407 -6.9763,-6.21051"
     style="fill:#000000;fill-opacity:1;fill-rule:nonzero;stroke:none;stroke-width:0;stroke-miterlimit:4;stroke-dasharray:none"
     id="path920"
     sodipodi:nodetypes="cccc" />
  <path
     d="m 201.47117,362.68168 -4.47633,4.4024 -1.3196,-1.3407 4.47634,-4.40241"
     style="fill:#000000;fill-opacity:1;fill-rule:nonzero;stroke:none;stroke-width:0;stroke-miterlimit:4;stroke-dasharray:none"
     id="path922" />
  <path
     d="m 190.67945,359.53248 6.97517,6.88167 -1.31959,1.34071 -6.97517,-6.88129"
     style="fill:#000000;fill-opacity:1;fill-rule:nonzero;stroke:none;stroke-width:0;stroke-miterlimit:4;stroke-dasharray:none"
     id="path924"
     sodipodi:nodetypes="cccc" />
  <path
     d="m 166.07672,350.63207 -6.97388,6.88142 -1.31958,-1.34072 6.97386,-6.88179"
     style="fill:#000000;fill-opacity:1;fill-rule:nonzero;stroke:none;stroke-width:0;stroke-miterlimit:4;stroke-dasharray:none"
     id="path926"
     sodipodi:nodetypes="cccc" />
  <path
     d="m 152.78708,349.96186 6.97463,6.88075 -1.3196,1.34069 -6.97461,-6.88033"
     style="fill:#000000;fill-opacity:1;fill-rule:nonzero;stroke:none;stroke-width:0;stroke-miterlimit:4;stroke-dasharray:none"
     id="path928"
     sodipodi:nodetypes="cccc" />
  <path
     d="m 153.44669,350.63207 -6.97502,6.88142 -1.31958,-1.34072 6.975,-6.88179"
     style="fill:#000000;fill-opacity:1;fill-rule:nonzero;stroke:none;stroke-width:0;stroke-miterlimit:4;stroke-dasharray:none"
     id="path930"
     sodipodi:nodetypes="cccc" />
  <path
     d="m 140.15593,349.96186 6.97575,6.88075 -1.3196,1.34069 -6.97574,-6.88033"
     style="fill:#000000;fill-opacity:1;fill-rule:nonzero;stroke:none;stroke-width:0;stroke-miterlimit:4;stroke-dasharray:none"
     id="path932"
     sodipodi:nodetypes="cccc" />
  <path
     d="m 178.70675,350.63207 -6.97388,6.88142 -1.31958,-1.34072 6.97386,-6.88179"
     style="fill:#000000;fill-opacity:1;fill-rule:nonzero;stroke:none;stroke-width:0;stroke-miterlimit:4;stroke-dasharray:none"
     id="path934"
     sodipodi:nodetypes="cccc" />
  <path
     d="m 165.41712,349.96186 6.97462,6.88075 -1.3196,1.34069 -6.97461,-6.88033"
     style="fill:#000000;fill-opacity:1;fill-rule:nonzero;stroke:none;stroke-width:0;stroke-miterlimit:4;stroke-dasharray:none"
     id="path936"
     sodipodi:nodetypes="cccc" />
  <path
     d="m 191.33961,350.63207 -6.97558,6.88142 -1.31958,-1.34072 6.97557,-6.88179"
     style="fill:#000000;fill-opacity:1;fill-rule:nonzero;stroke:none;stroke-width:0;stroke-miterlimit:4;stroke-dasharray:none"
     id="path938"
     sodipodi:nodetypes="cccc" />
  <path
     d="m 178.04827,349.96186 6.97632,6.88075 -1.31959,1.34069 -6.9763,-6.88033"
     style="fill:#000000;fill-opacity:1;fill-rule:nonzero;stroke:none;stroke-width:0;stroke-miterlimit:4;stroke-dasharray:none"
     id="path940"
     sodipodi:nodetypes="cccc" />
  <path
     d="m 202.85943,351.74659 -5.86459,5.7669 -1.3196,-1.34072 5.86459,-5.76727"
     style="fill:#000000;fill-opacity:1;fill-rule:nonzero;stroke:none;stroke-width:0;stroke-miterlimit:4;stroke-dasharray:none"
     id="path942" />
  <path
     d="m 190.67945,349.96186 6.97517,6.88075 -1.31959,1.34069 -6.97517,-6.88033"
     style="fill:#000000;fill-opacity:1;fill-rule:nonzero;stroke:none;stroke-width:0;stroke-miterlimit:4;stroke-dasharray:none"
     id="path944"
     sodipodi:nodetypes="cccc" />
  <path
     d="m 133.66282,231.56928 -8.25514,0.48998 -0.11122,-1.88659 8.25552,-0.48965"
     style="fill:#000000;fill-opacity:1;fill-rule:nonzero;stroke:none;stroke-width:0;stroke-miterlimit:4;stroke-dasharray:none"
     id="path946" />
  <path
     d="m 138.80011,316.69336 -0.0256,0.0118 -0.81035,-1.70212 0.0256,-0.0118 0.81068,1.70211 z m -0.85215,-1.68174 0.0139,-0.009 0.40517,0.8511 z m 0.8405,1.68739 c -1.60289,0.80083 -3.09902,1.7406 -4.47294,2.79083 l -1.14228,-1.495 c 1.4769,-1.1291 3.07337,-2.13329 4.77474,-2.98322 z m -4.47294,2.79083 c -1.37541,1.05212 -2.64144,2.22762 -3.78561,3.50116 l -1.40071,-1.25997 c 1.21474,-1.35241 2.56828,-2.60673 4.04404,-3.73619 z m -3.78561,3.50116 c -5.86648,6.53043 -8.45964,15.64458 -6.48554,24.61724 l -1.84137,0.40443 c -2.108,-9.57817 0.66277,-19.30834 6.92614,-26.28164"
     style="fill:#000000;fill-opacity:1;fill-rule:nonzero;stroke:none;stroke-width:0;stroke-miterlimit:4;stroke-dasharray:none"
     id="path948" />
  <path
     d="m 140.24797,332.24171 -0.11549,0.0567 -0.82543,-1.69378 0.11549,-0.0568 z m -0.94841,-1.63382 0.009,-0.003 0.41266,0.84693 z m 0.84051,1.68741 c -0.80426,0.40207 -1.56444,0.865 -2.27138,1.37844 l -1.10568,-1.52483 c 0.79334,-0.57638 1.6425,-1.09398 2.53655,-1.54102 z m -2.27138,1.37844 c -0.71229,0.51756 -1.37503,1.08832 -1.97938,1.70021 l -1.34072,-1.31958 c 0.68321,-0.69294 1.4252,-1.33241 2.21442,-1.90546 z m -1.97938,1.70021 c -3.11073,3.1481 -4.84829,7.70521 -4.61932,12.29167 l -1.86169,0.0667 c -0.25546,-5.11538 1.6625,-10.15874 5.14029,-13.67802"
     style="fill:#000000;fill-opacity:1;fill-rule:nonzero;stroke:none;stroke-width:0;stroke-miterlimit:4;stroke-dasharray:none"
     id="path950"
     sodipodi:nodetypes="ccccccccccccccccccccccc" />
  <path
     d="m 118.12314,338.76912 -1.76849,-0.11773 -0.0257,0.69294 c -0.009,-0.0256 0.03,-0.67904 0.0257,-0.69294 l 1.76925,0.11881 z m -1.79379,0.5753 1.79759,-0.56021 -1.77229,-0.13272 z m 1.79759,-0.56021 c 0.1327,0.4534 0.28861,0.90648 0.46291,1.3528 l -1.75344,0.68428 c -0.19045,-0.48773 -0.35608,-0.96381 -0.50697,-1.47691 z m 0.46291,1.3528 c 0.17345,0.44592 0.367,0.88199 0.57456,1.30222 l -1.68741,0.83183 c -0.23428,-0.47563 -0.4504,-0.96122 -0.64053,-1.44972 z m 0.57456,1.30222 c 1.07441,2.1782 2.62523,4.10855 4.54691,5.63561 l -1.17211,1.4735 c -2.13792,-1.70022 -3.86493,-3.84862 -5.06229,-6.27731"
     style="fill:#000000;fill-opacity:1;fill-rule:nonzero;stroke:none;stroke-width:0;stroke-miterlimit:4;stroke-dasharray:none"
     id="path952"
     sodipodi:nodetypes="cccccccccccccccccccccccc" />
  <path
     d="m 118.07827,339.40212 -2.1601,4.97129 -1.72361,-0.75067 2.16009,-4.97129"
     style="fill:#000000;fill-opacity:1;fill-rule:nonzero;stroke:none;stroke-width:0;stroke-miterlimit:4;stroke-dasharray:none"
     id="path954" />
  <path
     d="m 122.203,348.01267 0.0845,-0.64129 1.6874,0.84051 -0.009,0.0203 z m 1.77191,0.19922 -1.67985,-0.85558 v 0 z m -1.67985,-0.85558 c 0.23312,-0.44475 0.4534,-0.88008 0.66098,-1.30149 l 1.69378,0.82575 c -0.22778,0.46398 -0.4564,0.91632 -0.68246,1.346 z m 0.66098,-1.30149 c 0.24583,-0.5013 0.45874,-0.94423 0.62962,-1.31734 l 1.70891,0.78053 c -0.23964,0.52216 -0.45532,0.97748 -0.64472,1.36261 z m 0.62962,-1.31734 c 1.03972,-2.26157 1.93262,-4.60044 2.67051,-6.99443 l 1.7983,0.55157 c -0.75785,2.46186 -1.68101,4.87621 -2.7599,7.22339"
     style="fill:#000000;fill-opacity:1;fill-rule:nonzero;stroke:none;stroke-width:0;stroke-miterlimit:4;stroke-dasharray:none"
     id="path956"
     sodipodi:nodetypes="ccccccccccccccccccccccc" />
  <path
     d="m 129.40908,347.73237 -0.009,-0.0256 1.83488,-0.41909 0.009,0.0256 z m 1.82847,-0.45115 v 0.003 l -0.91738,0.20969 0.91738,-0.21387 z m -1.83488,0.42742 c -0.1155,-0.49265 -0.22778,-0.94499 -0.33044,-1.34073 l 1.8202,-0.47265 c 0.13237,0.50773 0.24807,0.9699 0.34517,1.38598 z m -0.33044,-1.34073 c -0.0983,-0.37534 -0.2221,-0.82008 -0.36893,-1.33127 l 1.81379,-0.51574 c 0.11121,0.38636 0.23739,0.84692 0.37535,1.37431 z m 1.44069,-1.8511 0.003,0.003 -0.90692,0.25803 0.90274,-0.26231 z m -1.8051,0.52398 c -0.65219,-2.25404 -1.45992,-4.47522 -2.41246,-6.64285 l -0.0396,-0.65487 1.76282,-0.10373 c 0.97857,2.22536 1.81266,4.52539 2.49397,6.87787"
     style="fill:#000000;fill-opacity:1;fill-rule:nonzero;stroke:none;stroke-width:0;stroke-miterlimit:4;stroke-dasharray:none"
     id="path958"
     sodipodi:nodetypes="cccccccccccccccccccccccccccccc" />
  <path
     d="m 137.97055,381.65811 -2.73089,-14.04922 1.85156,-0.3599 2.73088,14.04922"
     style="fill:#000000;fill-opacity:1;fill-rule:nonzero;stroke:none;stroke-width:0;stroke-miterlimit:4;stroke-dasharray:none"
     id="path960" />
  <path
     d="m 135.30763,367.85404 -6.40972,-18.73267 1.78359,-0.60504 6.40972,18.73266"
     style="fill:#000000;fill-opacity:1;fill-rule:nonzero;stroke:none;stroke-width:0;stroke-miterlimit:4;stroke-dasharray:none"
     id="path962" />
  <path
     d="m 140.81666,360.20362 -5.00846,4.94521 -1.31957,-1.34109 5.00843,-4.94521"
     style="fill:#000000;fill-opacity:1;fill-rule:nonzero;stroke:none;stroke-width:0;stroke-miterlimit:4;stroke-dasharray:none"
     id="path964"
     sodipodi:nodetypes="cccc" />
  <path
     d="m 140.81666,350.63207 -7.45826,7.35635 -1.3196,-1.3411 7.45826,-7.35634"
     style="fill:#000000;fill-opacity:1;fill-rule:nonzero;stroke:none;stroke-width:0;stroke-miterlimit:4;stroke-dasharray:none"
     id="path966"
     sodipodi:nodetypes="cccc" />
</svg>
